<svg class="animated" id="freepik_stories-group" xmlns="http://www.w3.org/2000/svg" viewBox="0 0 500 500" version="1.1" xmlns:xlink="http://www.w3.org/1999/xlink" xmlns:svgjs="http://svgjs.com/svgjs"><style>svg#freepik_stories-group:not(.animated) .animable {opacity: 0;}svg#freepik_stories-group.animated #freepik--Floor--inject-5 {animation: 1s 1 forwards cubic-bezier(.36,-0.01,.5,1.38) fadeIn;animation-delay: 0s;}svg#freepik_stories-group.animated #freepik--Plants--inject-5 {animation: 1s 1 forwards cubic-bezier(.36,-0.01,.5,1.38) lightSpeedRight;animation-delay: 0s;}svg#freepik_stories-group.animated #freepik--Shadows--inject-5 {animation: 1s 1 forwards cubic-bezier(.36,-0.01,.5,1.38) zoomIn;animation-delay: 0s;}svg#freepik_stories-group.animated #freepik--Clouds--inject-5 {animation: 1s 1 forwards cubic-bezier(.36,-0.01,.5,1.38) slideRight;animation-delay: 0s;}svg#freepik_stories-group.animated #freepik--speech-bubble--inject-5 {animation: 1s 1 forwards cubic-bezier(.36,-0.01,.5,1.38) slideLeft,6s Infinite  linear heartbeat;animation-delay: 0s,1s;}svg#freepik_stories-group.animated #freepik--Characters--inject-5 {animation: 1s 1 forwards cubic-bezier(.36,-0.01,.5,1.38) fadeIn,1.5s Infinite  linear floating;animation-delay: 0s,1s;}            @keyframes fadeIn {                0% {                    opacity: 0;                }                100% {                    opacity: 1;                }            }                    @keyframes lightSpeedRight {              from {                transform: translate3d(50%, 0, 0) skewX(-20deg);                opacity: 0;              }              60% {                transform: skewX(10deg);                opacity: 1;              }              80% {                transform: skewX(-2deg);              }              to {                opacity: 1;                transform: translate3d(0, 0, 0);              }            }                    @keyframes zoomIn {                0% {                    opacity: 0;                    transform: scale(0.5);                }                100% {                    opacity: 1;                    transform: scale(1);                }            }                    @keyframes slideRight {                0% {                    opacity: 0;                    transform: translateX(30px);                }                100% {                    opacity: 1;                    transform: translateX(0);                }            }                    @keyframes slideLeft {                0% {                    opacity: 0;                    transform: translateX(-30px);                }                100% {                    opacity: 1;                    transform: translateX(0);                }            }                    @keyframes heartbeat {                0% {                    transform: scale(1);                }                10% {                    transform: scale(1.1);                }                30% {                    transform: scale(1);                }                40% {                    transform: scale(1);                }                50% {                    transform: scale(1.1);                }                60% {                    transform: scale(1);                }                100% {                    transform: scale(1);                }            }                    @keyframes floating {                0% {                    opacity: 1;                    transform: translateY(0px);                }                50% {                    transform: translateY(-10px);                }                100% {                    opacity: 1;                    transform: translateY(0px);                }            }        </style><g id="freepik--Floor--inject-5" class="animable" style="transform-origin: 250.007px 328.68px;"><path id="freepik--floor--inject-5" d="M79.27,230.11C-15,284.55-15,372.81,79.27,427.25s247.17,54.44,341.46,0,94.29-142.7,0-197.14S173.56,175.67,79.27,230.11Z" style="fill: rgb(250, 250, 250); transform-origin: 250.007px 328.68px;" class="animable"></path></g><g id="freepik--Plants--inject-5" class="animable" style="transform-origin: 249.38px 316.689px;"><g id="freepik--plants--inject-5" class="animable" style="transform-origin: 460.8px 316.78px;"><path d="M444.59,352.47s-5.78-26.3,2.38-52.71c4.56-14.76,13.74-21.93,19.54-22.85,6.5-1,13.41,4.84,8.07,14.68-5.07,9.36-15.53,13.56-20.63,37.57-3.36,15.84-2.22,26.14-2.22,26.14Z" style="fill: rgb(251, 0, 0); transform-origin: 459.545px 316.05px;" id="eluffordr7hd" class="animable"></path><g id="elub19j8qay6j"><path d="M444.59,352.47s-5.78-26.3,2.38-52.71c4.56-14.76,13.74-21.93,19.54-22.85,6.5-1,13.41,4.84,8.07,14.68-5.07,9.36-15.53,13.56-20.63,37.57-3.36,15.84-2.22,26.14-2.22,26.14Z" style="fill: rgb(255, 255, 255); opacity: 0.5; transform-origin: 459.545px 316.05px;" class="animable"></path></g><path d="M448.33,345.56a.41.41,0,0,0,.34-.46c-4.22-28.87,8.59-53.8,19-62.28a.4.4,0,0,0,.06-.58.41.41,0,0,0-.57-.06c-10.59,8.61-23.58,33.85-19.32,63A.41.41,0,0,0,448.33,345.56Z" style="fill: rgb(255, 255, 255); transform-origin: 457.418px 313.83px;" id="elou9m4i0eiu" class="animable"></path><path d="M457,356.76c-.32-6.74,2-14.17,8.42-22.81s15.85-17.2,13.08-23.26-11-3.15-16.28,1.46-16,21-8.95,43.71Z" style="fill: rgb(251, 0, 0); transform-origin: 464.97px 332.009px;" id="ela6pe9dvp2km" class="animable"></path><g id="elfp46d4atfu5"><path d="M457,356.76c-.32-6.74,2-14.17,8.42-22.81s15.85-17.2,13.08-23.26-11-3.15-16.28,1.46-16,21-8.95,43.71Z" style="fill: rgb(255, 255, 255); opacity: 0.65; transform-origin: 464.97px 332.009px;" class="animable"></path></g><path d="M453.94,349.73a.4.4,0,0,0,.29-.43c-1.52-14.09,11.19-34.47,18.08-38.52a.41.41,0,0,0-.42-.71c-7.21,4.25-20.05,24.67-18.47,39.31a.41.41,0,0,0,.45.37Z" style="fill: rgb(255, 255, 255); transform-origin: 462.9px 329.882px;" id="elj7i6j2a789p" class="animable"></path></g><g id="freepik--plants--inject-5" class="animable" style="transform-origin: 40.3793px 315.749px;"><path d="M50.73,344.28,58,340.1s4.31-17.9,2.59-34c-2.41-22.65-17.32-31.17-23-29.21s-7.31,8.54,2.07,22C45.18,306.87,52,323.44,50.73,344.28Z" style="fill: rgb(251, 0, 0); transform-origin: 46.9858px 310.449px;" id="elpxhzlibnvi" class="animable"></path><g id="elqkmbmm1yvxs"><g style="opacity: 0.65; transform-origin: 46.9858px 310.449px;" class="animable"><path d="M50.73,344.28,58,340.1s4.31-17.9,2.59-34c-2.41-22.65-17.32-31.17-23-29.21s-7.31,8.54,2.07,22C45.18,306.87,52,323.44,50.73,344.28Z" style="fill: rgb(255, 255, 255); transform-origin: 46.9858px 310.449px;" id="eldaioqgyzph" class="animable"></path></g></g><path d="M53.73,335.49h-.07a.51.51,0,0,1-.4-.59c4-20.88-3.32-44.35-12.36-54.12a.49.49,0,0,1,0-.7.5.5,0,0,1,.71,0c9.2,10,16.64,33.8,12.61,55A.51.51,0,0,1,53.73,335.49Z" style="fill: rgb(255, 255, 255); transform-origin: 48.0472px 307.711px;" id="elau8y6a4cgym" class="animable"></path><path d="M32.52,354.8c-1.08.55-4-1.91-4.76-2.51a10.16,10.16,0,0,1-3.14-4,9.4,9.4,0,0,1-.55-5.69,21.82,21.82,0,0,1,.87-3c.32-1,.65-1.91,1-2.87a7.41,7.41,0,0,0,.57-2.92c-.15-2-1.85-3.49-3.39-4.77-1.71-1.42-3.48-3.27-3.35-5.67a8.48,8.48,0,0,1,2.37-4.92c1.22-1.39,2.65-2.61,3.76-4.09a5.85,5.85,0,0,0,1.39-3.66,6,6,0,0,0-.69-2.37,33,33,0,0,1-2.31-4.8c-.5-1.71-.31-3.79,1.06-4.93a5.48,5.48,0,0,1,4.17-.81,9.36,9.36,0,0,1,3.77,1.54c3.71,2.31,5.65,6.93,9.61,8.76a40,40,0,0,0,4.83,1.44,6.06,6.06,0,0,1,3.89,3c1.34,3-1.6,6.55-.71,9.75.78,2.83,3.43,4,4.82,6.61a6,6,0,0,1,.53,3.68,17.49,17.49,0,0,1-1.85,6.08,55.62,55.62,0,0,1-3.66,5.62Z" style="fill: rgb(251, 0, 0); transform-origin: 38.0559px 326.277px;" id="elirc4h623li" class="animable"></path><g id="el0hn7y8biiank"><g style="opacity: 0.3; transform-origin: 38.0559px 326.277px;" class="animable"><path d="M32.52,354.8c-1.08.55-4-1.91-4.76-2.51a10.16,10.16,0,0,1-3.14-4,9.4,9.4,0,0,1-.55-5.69,21.82,21.82,0,0,1,.87-3c.32-1,.65-1.91,1-2.87a7.41,7.41,0,0,0,.57-2.92c-.15-2-1.85-3.49-3.39-4.77-1.71-1.42-3.48-3.27-3.35-5.67a8.48,8.48,0,0,1,2.37-4.92c1.22-1.39,2.65-2.61,3.76-4.09a5.85,5.85,0,0,0,1.39-3.66,6,6,0,0,0-.69-2.37,33,33,0,0,1-2.31-4.8c-.5-1.71-.31-3.79,1.06-4.93a5.48,5.48,0,0,1,4.17-.81,9.36,9.36,0,0,1,3.77,1.54c3.71,2.31,5.65,6.93,9.61,8.76a40,40,0,0,0,4.83,1.44,6.06,6.06,0,0,1,3.89,3c1.34,3-1.6,6.55-.71,9.75.78,2.83,3.43,4,4.82,6.61a6,6,0,0,1,.53,3.68,17.49,17.49,0,0,1-1.85,6.08,55.62,55.62,0,0,1-3.66,5.62Z" style="fill: rgb(255, 255, 255); transform-origin: 38.0559px 326.277px;" id="elpeqxcp13k2o" class="animable"></path></g></g><path d="M43,349.34h0a.48.48,0,0,1-.43-.52c1.73-18.79-6.09-40-12.24-46.38a.48.48,0,0,1,0-.67.5.5,0,0,1,.68,0c6.27,6.49,14.25,28.08,12.49,47.12A.47.47,0,0,1,43,349.34Z" style="fill: rgb(255, 255, 255); transform-origin: 36.9707px 325.489px;" id="ellngdl5fe41m" class="animable"></path><path d="M41.13,326.17l-.14,0a62.78,62.78,0,0,0-13.55-2.89.49.49,0,0,1-.43-.52.47.47,0,0,1,.52-.43,65.34,65.34,0,0,1,13.79,2.94.48.48,0,0,1,.28.61A.47.47,0,0,1,41.13,326.17Z" style="fill: rgb(255, 255, 255); transform-origin: 34.3185px 324.249px;" id="eldfqml30l4q" class="animable"></path></g></g><g id="freepik--Shadows--inject-5" class="animable" style="transform-origin: 249.82px 379.915px;"><ellipse id="freepik--Shadow--inject-5" cx="213.31" cy="405.44" rx="52.23" ry="30.15" style="fill: rgb(230, 230, 230); transform-origin: 213.31px 405.44px;" class="animable"></ellipse><ellipse id="freepik--shadow--inject-5" cx="290.09" cy="408.35" rx="52.23" ry="30.15" style="fill: rgb(230, 230, 230); transform-origin: 290.09px 408.35px;" class="animable"></ellipse><ellipse id="freepik--shadow--inject-5" cx="152.47" cy="389.55" rx="52.23" ry="30.15" style="fill: rgb(230, 230, 230); transform-origin: 152.47px 389.55px;" class="animable"></ellipse><ellipse id="freepik--shadow--inject-5" cx="83.58" cy="359.79" rx="52.23" ry="30.15" style="fill: rgb(230, 230, 230); transform-origin: 83.58px 359.79px;" class="animable"></ellipse><ellipse id="freepik--shadow--inject-5" cx="355.17" cy="389.08" rx="52.23" ry="30.15" style="fill: rgb(230, 230, 230); transform-origin: 355.17px 389.08px;" class="animable"></ellipse><ellipse id="freepik--shadow--inject-5" cx="416.06" cy="351.48" rx="52.23" ry="30.15" style="fill: rgb(230, 230, 230); transform-origin: 416.06px 351.48px;" class="animable"></ellipse></g><g id="freepik--Clouds--inject-5" class="animable animator-active" style="transform-origin: 241.045px 59.6937px;"><path id="freepik--Cloud--inject-5" d="M391.06,58.4a9,9,0,0,0-3-.56c-1-.07-1.28-.27-1.47-.48A7.18,7.18,0,0,0,378,54.82a5.5,5.5,0,0,0-6.49-3.67c.11-3-3.76-6.28-7.23-7s-6.23-.42-8.13,1.77c-2-4-10-5.09-14.31-3-2.49,1.21-4.59,2.45-5.62,4.73a9.39,9.39,0,0,0-.93,4.51c-1.68-1.48-5-1.88-7.29-1-2.42.94-2.61,2.76-2.73,4.62a8.32,8.32,0,0,0-4.4-.08c-1.53.45-2.41,1.65-2.2,2.61-1.2-.06-4.08.91-3.75,2.19s3.65,1.28,4.88,1.24a23,23,0,0,0,3.43-.54,5.59,5.59,0,0,0,1.79.34c2.09,0,3-.92,3.31-1.69,1,2.14,4.65,3.78,7.22,4.44,4.83,1.24,11.67.48,14.64-3.13a5.42,5.42,0,0,0,1.44,1.75,8.24,8.24,0,0,0,4.47,1.81c2,.19,7.31.44,8.81-2.71,1.07,2.1,5.81,3,9.41,2.54a14.69,14.69,0,0,0,4-1.22,23.33,23.33,0,0,0,2.32-1.39,1.94,1.94,0,0,1,2-.14,11.75,11.75,0,0,0,7.87,0C392.53,60.94,393,59.25,391.06,58.4Z" style="fill: rgb(240, 240, 240); transform-origin: 353.594px 53.3617px;" class="animable"></path><path id="freepik--cloud--inject-5" d="M449,76.72a5.74,5.74,0,0,0-1.91-.35c-.61-.05-.81-.17-.93-.3a4.52,4.52,0,0,0-5.45-1.61,3.48,3.48,0,0,0-4.11-2.33c.07-1.91-2.38-4-4.58-4.44s-4-.26-5.15,1.13c-1.29-2.52-6.33-3.23-9.07-1.9-1.57.77-2.9,1.55-3.55,3a5.92,5.92,0,0,0-.59,2.86,5.07,5.07,0,0,0-4.62-.64c-1.54.6-1.65,1.75-1.73,2.93a5.27,5.27,0,0,0-2.79,0c-1,.28-1.52,1-1.39,1.65-.76,0-2.58.58-2.37,1.39s2.31.81,3.09.78a13.51,13.51,0,0,0,2.17-.34,3.3,3.3,0,0,0,1.13.21c1.32,0,1.89-.57,2.1-1.06.64,1.36,2.94,2.39,4.57,2.81,3.06.78,7.39.3,9.28-2a3.4,3.4,0,0,0,.91,1.11,5.34,5.34,0,0,0,2.83,1.14c1.26.12,4.63.28,5.58-1.72.68,1.33,3.68,1.94,6,1.61a9.06,9.06,0,0,0,2.56-.77,13.93,13.93,0,0,0,1.47-.88,1.2,1.2,0,0,1,1.25-.08,7.49,7.49,0,0,0,5,0C449.88,78.33,450.14,77.27,449,76.72Z" style="fill: rgb(245, 245, 245); transform-origin: 425.238px 73.5593px;" class="animable"></path><path id="freepik--cloud--inject-5" d="M98.66,83.06A7.84,7.84,0,0,0,96,82.58c-.85-.07-1.11-.24-1.28-.42A6.23,6.23,0,0,0,87.27,80a4.79,4.79,0,0,0-5.65-3.2c.1-2.63-3.27-5.46-6.29-6.1s-5.42-.36-7.07,1.55c-1.77-3.46-8.71-4.43-12.46-2.6-2.16,1.05-4,2.13-4.89,4.1a8.28,8.28,0,0,0-.81,3.94,6.93,6.93,0,0,0-6.34-.89c-2.11.82-2.27,2.41-2.37,4a7.45,7.45,0,0,0-3.84-.07c-1.33.4-2.09,1.44-1.91,2.28-1-.06-3.55.79-3.26,1.9S35.56,86,36.62,86a19.46,19.46,0,0,0,3-.47,4.55,4.55,0,0,0,1.55.29c1.82,0,2.59-.79,2.88-1.47.89,1.87,4.05,3.3,6.29,3.87,4.2,1.08,10.15.42,12.74-2.72A4.73,4.73,0,0,0,64.32,87a7.29,7.29,0,0,0,3.9,1.58c1.72.16,6.36.38,7.66-2.36.93,1.82,5.06,2.65,8.19,2.21a13.31,13.31,0,0,0,3.52-1.06c.82-.4,1.29-.78,2-1.21A1.68,1.68,0,0,1,91.33,86a10.26,10.26,0,0,0,6.85,0C99.93,85.28,100.3,83.81,98.66,83.06Z" style="fill: rgb(240, 240, 240); transform-origin: 66.0341px 78.7222px;" class="animable"></path><path id="freepik--cloud--inject-5" d="M192.12,53a12.08,12.08,0,0,0-4.05-.75c-1.31-.1-1.72-.36-2-.65a9.67,9.67,0,0,0-11.61-3.43c-.77-3.14-4.57-5.86-8.75-5,.14-4.08-5.07-8.46-9.75-9.46-4.49-.95-8.4-.55-11,2.4-2.75-5.36-13.5-6.86-19.31-4-3.35,1.63-6.19,3.3-7.57,6.37a12.63,12.63,0,0,0-1.26,6.09c-2.27-2-6.81-2.54-9.84-1.37-3.26,1.27-3.51,3.73-3.67,6.23a11.35,11.35,0,0,0-5.94-.11c-2.06.61-3.25,2.23-3,3.53-1.62-.09-5.5,1.23-5,2.94.5,1.93,4.92,1.74,6.58,1.68a30.78,30.78,0,0,0,4.63-.73,7.31,7.31,0,0,0,2.4.46c2.82,0,4-1.23,4.47-2.28,1.38,2.9,6.27,5.1,9.73,6,6.52,1.67,15.74.65,19.76-4.22A7.11,7.11,0,0,0,138.92,59a11.24,11.24,0,0,0,6,2.45c2.68.25,9.86.59,11.88-3.66,1.44,2.83,7.83,4.11,12.7,3.42A19.74,19.74,0,0,0,175,59.61a31.22,31.22,0,0,0,3.13-1.88,2.61,2.61,0,0,1,2.67-.18c3.34,1,7.21,1.42,10.62,0C194.11,56.4,194.67,54.12,192.12,53Z" style="fill: rgb(245, 245, 245); transform-origin: 141.545px 46.1754px;" class="animable"></path></g><g id="freepik--speech-bubble--inject-5" class="animable" style="transform-origin: 257.67px 104.187px;"><g id="freepik--speech-bubble--inject-5" class="animable" style="transform-origin: 257.67px 104.187px;"><g id="freepik--speech-bubble--inject-5" class="animable" style="transform-origin: 257.67px 104.187px;"><path d="M227.25,99.48A30.42,30.42,0,1,0,257.63,69,30.44,30.44,0,0,0,227.25,99.48Zm2.73,0a27.69,27.69,0,1,1,27.71,27.66A27.71,27.71,0,0,1,230,99.48Z" style="fill: rgb(69, 90, 100); transform-origin: 257.67px 99.42px;" id="elbujczvoia9j" class="animable"></path><path d="M230,99.48a27.69,27.69,0,1,0,27.65-27.71A27.72,27.72,0,0,0,230,99.48Z" style="fill: rgb(255, 255, 255); transform-origin: 257.69px 99.46px;" id="elrfy79s0dyxl" class="animable"></path><path d="M259.35,138.25l3.88-10.06H252.15l3.9,10.05A1.77,1.77,0,0,0,259.35,138.25Z" style="fill: rgb(69, 90, 100); transform-origin: 257.69px 133.782px;" id="eloqq21ggb1k" class="animable"></path></g><path id="freepik--Heart--inject-5" d="M257.67,116.94c-20.39-10.86-22-22.51-16.11-28.21,5.31-5.1,15-1.74,16.11,5.56,1.08-7.3,10.79-10.66,16.1-5.56C279.69,94.43,278.05,106.08,257.67,116.94Z" style="fill: rgb(251, 0, 0); transform-origin: 257.672px 101.611px;" class="animable"></path></g></g><g id="freepik--Characters--inject-5" class="animable" style="transform-origin: 243.931px 259.892px;"><g id="freepik--Group--inject-5" class="animable" style="transform-origin: 243.931px 259.892px;"><g id="freepik--Character--inject-5" class="animable" style="transform-origin: 78.4593px 247.871px;"><path id="freepik--Arm--inject-5" d="M71.06,155.84c-5.33-1.13-13-.08-15.81,11.61-2.55,10.68-4.55,18.73-5.43,24.38s-.41,10.25.19,15.89c.37,3.48,1,6.92,1.5,10.37q.43,2.64.83,5.28a22.64,22.64,0,0,1,.45,4.63c-.24,3.55-.4,7.2.54,10.67.22.84.5,1.65.79,2.46L56,246.44a5.22,5.22,0,0,0,2.15,3,6.93,6.93,0,0,0,3,.7,2.19,2.19,0,0,0,1.08,0,2.25,2.25,0,0,0,.64-.47A3.94,3.94,0,0,0,64.37,247c0-.63-.3-1.3,0-1.87a4.27,4.27,0,0,1,.3-.44,2.61,2.61,0,0,0,.28-2,9.4,9.4,0,0,0-.69-1.9,20.75,20.75,0,0,1-1.55-9.31c0-.3.2-.71.48-.61a.51.51,0,0,1,.26.34,17.45,17.45,0,0,1,.78,2.83,6.67,6.67,0,0,0,.75,2.5,1.82,1.82,0,0,0,2.26.79l-.36-4.47a21.64,21.64,0,0,0-.28-2.27,24.33,24.33,0,0,0-1.9-5.06,17.66,17.66,0,0,1-1.36-5.06,80.78,80.78,0,0,1-.23-11.95c.07-3.74.2-7.48.41-11.22L71,171.22Z" style="fill: rgb(255, 168, 167); transform-origin: 60.1969px 202.849px;" class="animable"></path><path d="M72.05,155.12c-5.25-1.07-7.48-.7-10.74,1.63a14.41,14.41,0,0,0-5.53,8.4c.94,4.82,4.38,15,11,17.68Z" style="fill: rgb(55, 71, 79); transform-origin: 63.915px 168.689px;" id="eldueo5bnbdqs" class="animable"></path><g id="freepik--Bottom--inject-5" class="animable" style="transform-origin: 78.4593px 298.539px;"><path d="M82.75,369.79a19.89,19.89,0,0,0-.51,6.11c.48,1.39,3.07,2.83,4.26,3.19,3.36,1,3.78.87,9.22,1.57a24.8,24.8,0,0,1,4.37.84c4.56,1.41,8,3.49,12.31,3.74,6.44.38,11.26-1.14,13.75-3.8a6.54,6.54,0,0,0,0-4.27c-.73-2.13-3.45-3.61-5.47-4.3-5.43-1.86-8.08-2.94-12.18-4.59a56.65,56.65,0,0,1-6.34-3.15c-1.75-1-2.85-2.61-4.92-2.9s-4.15.26-6.18.57-4.43.74-6.61,1C83.74,363.88,84.24,364.48,82.75,369.79Z" style="fill: rgb(69, 90, 100); transform-origin: 104.349px 373.723px;" id="eln4wys13afhh" class="animable"></path><path d="M83.58,349.3c.09,2.56.77,7.36.86,9.91.07,2.1,0,4.23-.08,6.33a3.89,3.89,0,0,0,.15,1.44,3.48,3.48,0,0,0,1.62,1.64c4.93,3,8.5,3.49,14,5a95.28,95.28,0,0,0,11.61,2.71c3,.35,6.41.45,8.11-1,.81-.7.7-2.08-2.52-3.34s-6.14-2.33-9.36-3.88a45.14,45.14,0,0,1-5.83-3.17,5.8,5.8,0,0,1-2.19-2.18,7.12,7.12,0,0,1-.38-3.17c.11-1.38.27-2.75.42-4.13.27-2.34.52-4.69.8-7C100.82,348.38,83.58,349.18,83.58,349.3Z" style="fill: rgb(255, 168, 167); transform-origin: 101.927px 362.502px;" id="elpyyw64424xa" class="animable"></path><path d="M36.58,329A11.52,11.52,0,0,0,38,327.14c1.59-3.42,3.37-9.44,5.09-15.34l15.61,7.42q-2.07,3.67-4.16,7.34c-.68,1.21-1.35,2.43-2.06,3.62a31.39,31.39,0,0,0-1.85,3.13,18.51,18.51,0,0,0-1.33,3.74,18.7,18.7,0,0,0-.15,6,17.08,17.08,0,0,0,.94,4.42,8,8,0,0,0,2.69,3.31c.55.44.92.47.52,1.4-.15.36-.63.42-1,.44a10.08,10.08,0,0,1-1.82-.07A7.73,7.73,0,0,1,47.06,351a10.82,10.82,0,0,1-2.43-2.44c-1.73-2.51-1.87-5.75-1.77-8.79a8.09,8.09,0,0,0-.09-2,7.61,7.61,0,0,0-.44-1.24C41.1,333.58,38.56,331.46,36.58,329Z" style="fill: rgb(255, 168, 167); transform-origin: 47.64px 332.217px;" id="ely1618xwlcfs" class="animable"></path><path d="M30.72,335.55a3.54,3.54,0,0,1,.18-2.4c.7-1.44,1.66-1.79,2.73-2.53.57-.39,1.08-.86,1.64-1.27a7,7,0,0,1,1.48-1.14,2.8,2.8,0,0,1,1.35-.09,8.66,8.66,0,0,1,5.41,2.58c1.32,1.64,1.48,3.71,1.51,5.74l.09,5.2a18,18,0,0,0,.79,6.07,6.38,6.38,0,0,0,1.85,2.89A5.27,5.27,0,0,0,50.87,352a1.72,1.72,0,0,0,1.91-1.16s.82.29,1.11.41a9.65,9.65,0,0,1,1.91,1,4.79,4.79,0,0,1,1.74,5.24c-.37,1-4.62,3.9-12.41,3-.78-.26-3.68-1.28-4.45-1.65-2.18-1.07-5.29-1.88-5.8-4.65a9.8,9.8,0,0,1,0-2.36,22.37,22.37,0,0,0-.67-8.4,44.24,44.24,0,0,0-2.37-5.14A13.65,13.65,0,0,1,30.72,335.55Z" style="fill: rgb(69, 90, 100); transform-origin: 44.1674px 344.368px;" id="el40ja5091dc" class="animable"></path><path d="M30.9,333.15c-1.11,1.06-.18,3.48,1.26,7.22C32.8,342,34.77,345,34.39,348s-.43,5.87.33,7.29c1.2,2.23,6.59,4.26,10.41,5.18a21.13,21.13,0,0,1-3.79-11.11c-.32-6.67-.79-11-3.81-14C33.71,331.64,30.9,333.15,30.9,333.15Z" id="eln7udu3eyned" class="animable" style="transform-origin: 37.7701px 346.658px;"></path><path d="M54.33,327.46s7.84-13.34,19.59-33.58a27,27,0,0,0,3.73-9.29c.81-3.38,1.42-5.86,1.42-5.86L81,302a61.46,61.46,0,0,0-1.63,11,149.32,149.32,0,0,0,1.35,20.82C82.58,348.26,83.52,356,83.52,356c1,.74,2.5,1.92,9.62,1.89a18.68,18.68,0,0,0,7.28-1.95s1.83-15,2.69-25.47c1.24-14.92,1.82-20.08,2.29-25.91.87-10.95,2.15-16.16,2.42-33.42.28-17.9-.84-44.25-.84-44.25L58.61,211.78s-5.48,9.13-2.69,25.77c-.54,15-1.35,43.06-1.35,43.06-2.52,3.49-5.29,8.74-7.72,17.3-2.71,9.52-4.35,15-6.49,22C44.45,319.84,52.86,324.58,54.33,327.46Z" style="fill: rgb(55, 71, 79); transform-origin: 74.1125px 284.835px;" id="elvdl4mntxgm" class="animable"></path><path d="M77.81,262.11c-.39,1.71-.78,3.34-1.15,4.9-2.63,11-4.9,19-7.78,24.56-3.47,6.7-14.26,24.92-18.59,32.18.26.17.5.33.73.5C55.33,317,66.17,298.72,69.67,292c2.74-5.27,4.91-12.66,7.34-22.69.34-1.38.68-2.8,1-4.27Z" style="fill: rgb(38, 50, 56); transform-origin: 64.15px 293.18px;" id="elwdjkfh8mmi" class="animable"></path><path d="M101.11,226.85H102c.47,7.63.67,17.14.65,27.81,1.81-.84,3.74-2.65,5-6.34,0,.72,0,1.44,0,2.17a9.84,9.84,0,0,1-5.06,5.13c-.09,30.32-3.93,69.69-6.31,101.83l-.9.2C98.69,313.75,102.93,256.22,101.11,226.85Z" style="fill: rgb(38, 50, 56); transform-origin: 101.515px 292.25px;" id="elw9zjvrt5tof" class="animable"></path><g id="elhljp68000y4"><path d="M79.07,278.73l-2.44-32a23.55,23.55,0,0,1-11-9.55s.2,7,8,10.41l4.7,30.49-.26,4.7S79,279.1,79.07,278.73Z" style="opacity: 0.2; transform-origin: 72.35px 259.98px;" class="animable"></path></g></g><g id="freepik--Top--inject-5" class="animable" style="transform-origin: 85.025px 171.979px;"><path d="M81.62,114.09a11.19,11.19,0,0,1,3-2.11,13.32,13.32,0,0,1,2.7-.88,19.43,19.43,0,0,1,8.71-.3,11.29,11.29,0,0,1,7.14,4.74,13.57,13.57,0,0,0,1.64,2.49c1.26,1.27,3.18,1.51,4.86,2.12a7.79,7.79,0,0,1,3.7,2.65,5,5,0,0,1,.78,4.38,15.71,15.71,0,0,1-1.55,2.73,3.44,3.44,0,0,0-.44,3c.43,1,1.91,1.41,2.55.58a5,5,0,0,1-4.13,1.78,4.44,4.44,0,0,1-2.11,6.5,1.19,1.19,0,0,0-.47.25,1.35,1.35,0,0,0-.22.92c-.1,3.7-4.34,4.73-7.16,5.72s-6.41,2.05-8.3,4.41a4.47,4.47,0,0,1-3,1.9,13.44,13.44,0,0,1-4.69.08,11.56,11.56,0,0,1-3.62-1c-1.21-.59-1.66-1.5-2.57-2.35-.74-.69-2.76-.39-3.69-.7-3.61-1.19-5.26-4.81-5.31-8.62a5.06,5.06,0,0,0,0,4.41,7,7,0,0,1-2.18-6.29c.28-1.56,1.09-3,1.52-4.49,1.23-4.39-.77-9.45,1.36-13.48a11.6,11.6,0,0,1,8.07-5.44c1.33-.23,1.93-1.55,2.84-2.49C81.25,114.44,81.43,114.27,81.62,114.09Z" style="fill: rgb(38, 50, 56); transform-origin: 90.9392px 132.831px;" id="eljavoxun8hn" class="animable"></path><path d="M75,157.83s1.37-9,1.35-9.15c-.39-3.12-5-9.52-5-16.76s8.08-16.34,18.94-15.66c8.4.52,12.63,5,14.47,11.45,1.12,3.9.06,5.55.44,7.78.76,4.38,2,8.7-1,15.24A8.77,8.77,0,0,1,98,155.51a17.23,17.23,0,0,1-5.43-.18l-.71,7.33Z" style="fill: rgb(255, 168, 167); transform-origin: 88.7307px 139.442px;" id="eldzkt0fv2ekf" class="animable"></path><path d="M98.91,146.17a2.23,2.23,0,1,1-4.2-1.52Z" style="fill: rgb(177, 102, 104); transform-origin: 96.7434px 146.147px;" id="elmg1ifh30oqi" class="animable"></path><path d="M97.14,147.61a3.17,3.17,0,0,0-2.56-2.21,2.24,2.24,0,0,0,1.47,2.11A2.26,2.26,0,0,0,97.14,147.61Z" style="fill: rgb(242, 143, 143); transform-origin: 95.86px 146.518px;" id="elfp608h72s2m" class="animable"></path><path d="M95,136.53a1.34,1.34,0,1,1-1.63-1A1.37,1.37,0,0,1,95,136.53Z" style="fill: rgb(38, 50, 56); transform-origin: 93.6941px 136.833px;" id="elu2rqqv1el3i" class="animable"></path><path d="M94.2,132.4l-2.68,1.88a1.72,1.72,0,0,1,.42-2.34A1.6,1.6,0,0,1,94.2,132.4Z" style="fill: rgb(38, 50, 56); transform-origin: 92.7168px 132.968px;" id="el7qghc8qbiy6" class="animable"></path><path d="M105,133l-3.17-.92a1.58,1.58,0,0,1,2-1.15A1.73,1.73,0,0,1,105,133Z" style="fill: rgb(38, 50, 56); transform-origin: 103.44px 131.931px;" id="el2vzh14na2b2" class="animable"></path><path d="M104.46,136.1a1.23,1.23,0,1,1-2.45-.18,1.24,1.24,0,0,1,1.31-1.18A1.26,1.26,0,0,1,104.46,136.1Z" style="fill: rgb(38, 50, 56); transform-origin: 103.232px 136.021px;" id="eldrdrucyumeo" class="animable"></path><polygon points="105.04 141.78 100.67 143.47 98.99 134.66 105.04 141.78" style="fill: rgb(242, 143, 143); transform-origin: 102.015px 139.065px;" id="eluhcvrw21iz8" class="animable"></polygon><path d="M92.56,155.33a34.2,34.2,0,0,1-5.13-2.07,16.26,16.26,0,0,1-6.29-7.93c0,2.32,1.94,6.22,4.77,8.85,2.1,1.95,6.47,3,6.47,3Z" style="fill: rgb(242, 143, 143); transform-origin: 86.85px 151.255px;" id="elgm7mduv7xh" class="animable"></path><path d="M80.57,143.05a9.24,9.24,0,0,1-2,4.63,17.45,17.45,0,0,1-2.82,2.84c-1.8-4-2.23-6.74-3.15-9.22a26.42,26.42,0,0,1-1.53-9.65,15.48,15.48,0,0,1,3-8.18,18.92,18.92,0,0,1,6-5.41,16.21,16.21,0,0,1,4-1.65,26.49,26.49,0,0,1,9.29-.31c4.67.81,10,5.16,10.86,10-.66-1.25-1.83-2.35-3.25-1.74-1.59.67-2.87,1.94-4.53,2.46-2.2.69-6.34-.07-8.31-1.25.47,1.55,1,3.46.44,5a7.54,7.54,0,0,1-2.54,3.59,2.07,2.07,0,0,0-1,1.18,10.8,10.8,0,0,1-.37,1.83,2.74,2.74,0,0,1-.78,1.16,1.37,1.37,0,0,1-1.31.29.73.73,0,0,1-.42-.31,1.11,1.11,0,0,1-.09-.4c0-.44,0-.87,0-1.31a3.41,3.41,0,0,0-.54-1.7,3.64,3.64,0,0,0-5.37-.59C74.57,136,74,138,75.49,141.08,76.48,143.19,78.89,144.46,80.57,143.05Z" style="fill: rgb(38, 50, 56); transform-origin: 87.6395px 133.175px;" id="elwqswce61ogq" class="animable"></path><path d="M60.12,167.42c.78-4.7,3.72-9.58,6.67-11.21,3.11-1.7,5.25-1.61,15.92,1.15,7.1,1.83,17.1,5.24,17.1,5.24,2.8,1.47,5,3.71,10.3,13.51,4.29,7.91,3.3,16.37-3.24,19.89.13,5.54-1,8.79-.76,11.57,1.06,11.74,1.39,23.08,1.39,23.08S91,236.26,75.78,231.78C61,227.44,56.93,221.71,55.34,219.41c0,0,1.07-3.81,3.18-9.81,2.27-6.44,3.68-10.71,3-16.1C60.24,183.83,58.85,175.12,60.12,167.42Z" style="fill: rgb(240, 240, 240); transform-origin: 84.0232px 194.298px;" id="elsj1i4dxsi2f" class="animable"></path></g></g><g id="freepik--character--inject-5" class="animable" style="transform-origin: 126.023px 262.364px;"><g id="freepik--bottom--inject-5" class="animable" style="transform-origin: 151.286px 322.361px;"><path d="M154.29,386.88c.65,0,.48,1.89.21,2.7s-3,3.45-7.77,4.19-11.17-.45-13.95-.7-7.07.88-9.84,1.32c-6.44,1-9.89-1.47-11.46-3.12a2.93,2.93,0,0,1-.57-2.33c.15-1.83.34-2.2.55-2.17Z" style="fill: rgb(55, 71, 79); transform-origin: 132.801px 390.695px;" id="elg3v7gy5xkxc" class="animable"></path><path d="M112.6,380.91a35,35,0,0,0-1.2,3.76c-.4,1.54-.8,3.52.19,4.81,1.67,2.17,3.83,2.84,6.12,3.21a19.66,19.66,0,0,0,8.18-.48c2.47-.66,4.45-1.26,7.06-1,2.86.31,6.78,1,9.66.85a22.94,22.94,0,0,0,7.18-1.18,8.94,8.94,0,0,0,4.48-3.67,6.51,6.51,0,0,0-3.35-6.61,14.6,14.6,0,0,0-7.15-1.83c-2.71-.1-4.77.17-7.17-.1a11.84,11.84,0,0,1-4.73-1.36,4.67,4.67,0,0,1-1.41-2.21c-.35-.87-.46-1.63-1.23-1.74,0,0-12.67-.62-13.82-.61-1.32,0-1.24,1.8-1.34,2.74s-.12.83-.21,1.65a11.37,11.37,0,0,1-.82,2.64C112.89,380.16,112.74,380.53,112.6,380.91Z" style="fill: rgb(69, 90, 100); transform-origin: 132.651px 382.832px;" id="eljuofphnn6k" class="animable"></path><path d="M138.72,378.3a1.62,1.62,0,0,1,.6-.19c1.11-.12,1.9,1,2.33,1.87a6.87,6.87,0,0,1,.51,1.67,3.83,3.83,0,0,1-.06,2.15c-.06.17-.21.37-.39.32s-.19-.26-.2-.43a8.44,8.44,0,0,0-.7-2.92,3.49,3.49,0,0,0-.63-1.09,3,3,0,0,0-1.07-.73c-.16-.07-.9-.1-.71-.42a.54.54,0,0,1,.16-.14Z" style="fill: rgb(250, 250, 250); transform-origin: 140.327px 381.114px;" id="elfx0eaq1ffm" class="animable"></path><path d="M135.54,378.16a2.11,2.11,0,0,1,1.44.48,3,3,0,0,1,.8,1.49c.36,1.08.61,2.68-.08,3.7-.22.32-.5.14-.61-.17a5.47,5.47,0,0,1-.08-1.15,10.63,10.63,0,0,0-.57-2.48,4,4,0,0,0-.42-.91,1.72,1.72,0,0,0-.46-.47.91.91,0,0,0-.3-.14,2.65,2.65,0,0,0-.3-.06c0-.15.19-.23.34-.26Z" style="fill: rgb(250, 250, 250); transform-origin: 136.548px 381.078px;" id="el6s9vf75era8" class="animable"></path><path d="M132.37,377.11a2,2,0,0,1,.91.67,2.71,2.71,0,0,1,.39,1,10,10,0,0,1,.33,2.43,3,3,0,0,1-.48,1.64c-.13.19-.37.37-.57.26s-.18-.47-.19-.68a11.45,11.45,0,0,1,.05-1.17,6.92,6.92,0,0,0-1.14-4,.25.25,0,0,1-.06-.2c0-.1.18-.1.28-.08A3.82,3.82,0,0,1,132.37,377.11Z" style="fill: rgb(250, 250, 250); transform-origin: 132.804px 380.057px;" id="el0yx0w8obyqa" class="animable"></path><path d="M142.09,378.76c1.12,0,3.4,1.67,4.39,5.16a19.56,19.56,0,0,1,.14,7.79,11.06,11.06,0,0,0,6.36-2.65,6.71,6.71,0,0,0,1.65-1.89,6.85,6.85,0,0,0-.92-5.3c-1.54-2-4-3.42-8-3.81-4.43-.45-4.87.72-4.87.72Z" style="fill: rgb(250, 250, 250); transform-origin: 147.826px 384.834px;" id="eliodfysx04hc" class="animable"></path><path d="M113.06,353l2,21c-.09,1.54,2.42,3.11,7.15,3.4,3.31.2,6.36-.72,6.92-2.36s3.22-21.42,3.22-21.42Z" style="fill: rgb(177, 102, 104); transform-origin: 122.705px 365.214px;" id="el3qypllwe2f2" class="animable"></path><path d="M191.21,398.81c.65,0,.51,1.88.25,2.7s-3,3.48-7.72,4.29-11.18-.31-14-.52-7.07,1-9.83,1.44c-6.42,1.09-9.91-1.34-11.5-3a2.93,2.93,0,0,1-.6-2.32c.13-1.84.31-2.2.52-2.18Z" style="fill: rgb(55, 71, 79); transform-origin: 169.723px 402.901px;" id="el2vcz6xwonkq" class="animable"></path><path d="M149.45,393.38a37.53,37.53,0,0,0-1.16,3.78c-.37,1.54-.75,3.52.26,4.8,1.7,2.15,3.87,2.79,6.16,3.13a19.52,19.52,0,0,0,8.18-.59c2.46-.69,4.43-1.32,7-1.07,2.86.26,6.79.91,9.67.72a23.14,23.14,0,0,0,7.16-1.27,8.88,8.88,0,0,0,4.43-3.73,6.49,6.49,0,0,0-3.43-6.57,14.51,14.51,0,0,0-7.17-1.73c-2.71-.07-4.77.23-7.17,0a11.68,11.68,0,0,1-4.75-1.29,4.78,4.78,0,0,1-1.44-2.19c-.36-.86-.48-1.63-1.25-1.73,0,0-12.68-.45-13.83-.43-1.32,0-1.21,1.82-1.3,2.76s-.11.83-.19,1.65a11.2,11.2,0,0,1-.78,2.65C149.73,392.62,149.58,393,149.45,393.38Z" style="fill: rgb(69, 90, 100); transform-origin: 169.552px 395.245px;" id="eltxha5j1cnj" class="animable"></path><path d="M165.55,387.88c0,1.4-2.9,3-6.52,3s-6.54-1.33-6.56-2.9a6.54,6.54,0,1,1,13.08-.1Z" style="fill: rgb(55, 71, 79); transform-origin: 159.01px 386.135px;" id="elswerlv9m3g" class="animable"></path><path d="M160.26,383c0,.75-2.57.77-2.57,0l-.13-15,2.57,0Z" style="fill: rgb(224, 224, 224); transform-origin: 158.91px 375.785px;" id="elm1cpdcwi0f7" class="animable"></path><path d="M175.53,390.43a1.85,1.85,0,0,1,.6-.2c1.11-.13,1.91,1,2.36,1.84a6.89,6.89,0,0,1,.52,1.67,3.89,3.89,0,0,1,0,2.14c-.07.18-.21.38-.39.33s-.2-.25-.21-.42a8.44,8.44,0,0,0-.74-2.92,3.47,3.47,0,0,0-.64-1.08,3.15,3.15,0,0,0-1.08-.72c-.16-.06-.9-.09-.71-.4a.34.34,0,0,1,.15-.14Z" style="fill: rgb(250, 250, 250); transform-origin: 177.185px 393.219px;" id="elemeaoxfplpo" class="animable"></path><path d="M172.35,390.33a2.14,2.14,0,0,1,1.45.46,3.06,3.06,0,0,1,.82,1.48c.37,1.08.64,2.67,0,3.7-.21.33-.5.15-.61-.16a5.47,5.47,0,0,1-.09-1.15,10.63,10.63,0,0,0-.61-2.47,3.69,3.69,0,0,0-.42-.9,1.65,1.65,0,0,0-.48-.47,1.11,1.11,0,0,0-.29-.14c-.1,0-.21,0-.3-.05s.18-.24.33-.27Z" style="fill: rgb(250, 250, 250); transform-origin: 173.404px 393.236px;" id="elkqp95mfyxq" class="animable"></path><path d="M169.17,389.32a2,2,0,0,1,.91.66,2.54,2.54,0,0,1,.41,1,10.57,10.57,0,0,1,.36,2.43,3.07,3.07,0,0,1-.46,1.65c-.13.19-.36.37-.56.27s-.19-.47-.21-.68c0-.39,0-.79,0-1.17a6.91,6.91,0,0,0-1.19-4c0-.06-.09-.13-.06-.19s.17-.11.28-.09A2.9,2.9,0,0,1,169.17,389.32Z" style="fill: rgb(250, 250, 250); transform-origin: 169.607px 392.277px;" id="el1ysyhp8g41k" class="animable"></path><path d="M178.91,390.85c1.11,0,3.42,1.62,4.45,5.1a19.55,19.55,0,0,1,.25,7.79,11.12,11.12,0,0,0,6.32-2.73,6.69,6.69,0,0,0,1.62-1.92,6.85,6.85,0,0,0-1-5.29c-1.56-2-4-3.36-8-3.7-4.44-.39-4.86.78-4.86.78Z" style="fill: rgb(250, 250, 250); transform-origin: 184.7px 396.88px;" id="elx9esdmftrs" class="animable"></path><path d="M112.18,322.71A58.71,58.71,0,0,1,115,310.09s-.12-39.91.19-51a129.27,129.27,0,0,1,2.57-21.36l55.48,1.07s.3,32.14-.12,53.49c-.41,21-2.51,27.13-4.1,50.39-.59,8.63-2.26,25.38-2.26,25.38s-3.48,2.42-10,1.94c-2.8-.2-7.22-1.46-8.28-2.31,0,0-3.16-13.95-3.85-23.05-.28-3.64-.84-12.4.12-17.43l-4-27.59s-.93,12.84-2,22.85-8,43.36-8,43.36-2.56,2-9,1.64c-4.17-.25-6.65-1.7-7.63-2.64,0,0-.67-6.43-1.47-16.8C111.68,337.18,111.61,328.67,112.18,322.71Z" style="fill: rgb(69, 90, 100); transform-origin: 142.582px 303.897px;" id="el5279ojgskif" class="animable"></path><path d="M147.05,363.16l1.25,6.36s3.67,2.76,10.58,2.31,8.29-3.07,8.29-3.07l.36-6.38s-3.1,2.2-9.29,2.46C150.82,365.16,147.05,363.16,147.05,363.16Z" style="fill: rgb(55, 71, 79); transform-origin: 157.29px 367.13px;" id="elhl8irc9by6t" class="animable"></path><path d="M140.71,299.61l-2.69-32s-6.32-.91-14.48-8.49c0,0,.4,5.74,11.38,10.95l3.24,28.34,1.33,16.25C140.26,308.8,140.47,304.34,140.71,299.61Z" style="fill: rgb(55, 71, 79); transform-origin: 132.125px 286.89px;" id="el4p94avem3c6" class="animable"></path><path d="M113.17,358.81l.55,6.5s2.53,2.82,9.46,2.79,7.91-2.24,7.91-2.24l1.3-6.66s-3.23,2-9.42,1.89C115.55,360.94,113.17,358.81,113.17,358.81Z" style="fill: rgb(55, 71, 79); transform-origin: 122.78px 363.455px;" id="elohyrzfe0fwo" class="animable"></path></g><g id="freepik--top--inject-5" class="animable" style="transform-origin: 118.67px 185.643px;"><path d="M60.35,184.82c.17-1,1.17-1.13,2-1.12a7.74,7.74,0,0,1,4.46,2,47.79,47.79,0,0,1,4,3.38A10.92,10.92,0,0,0,75,191.71c1,.42,2.38.43,1.87-1-.6-1.71-2-3.58-1.52-5.54.32-1.35,1.37-1.34,2.19-.47a38.55,38.55,0,0,0,4.31,4c1.56,1.24,1.2.64,2.72,1.92a22.25,22.25,0,0,1,2.23,2.22c2,2.17,4.86,2.86,7.52,3.3,1.82.31,9.9,1.51,9.9,1.51s10.3-22.08,13.69-27.76c3.55-6,8-7.33,14.94-6.24l-4,24.67s-7.83,14.85-11.77,20-3.47,6.71-13,4.56c-5.28-1.19-14.56-5.18-19.67-7-2.36-.83-4.67-1.44-7.1-2.11s-4.81-2-7.23-3.07a7.21,7.21,0,0,1-2.85-2.41c-.47-.67-.46-1.51-.9-2.14s-1.27-.84-1.61-1.69,0-2-.41-2.8a24.33,24.33,0,0,1-1.37-2.58,5.26,5.26,0,0,0-1-2.18C61.38,186.35,60.19,185.75,60.35,184.82Z" style="fill: rgb(177, 102, 104); transform-origin: 96.5927px 188.561px;" id="elh48kkd02gfe" class="animable"></path><path d="M134,163c-6.69-.7-11.23-.65-15,4.13s-11.44,21.8-11.44,21.8.82,3.31,5.51,6.47a15.62,15.62,0,0,0,9.32,2.73l9.93-21.53Z" style="fill: rgb(240, 240, 240); transform-origin: 120.78px 180.406px;" id="elg9g9wend9n" class="animable"></path><path d="M169.6,174.54c-3.48-2-11.34-5.21-18.58-7.42A129.18,129.18,0,0,0,136,163.23c-5.23-1-8.89,0-12.4,3.56-2.77,2.8-5.23,9.46-5.58,17-.43,9.19,1.19,20.56,1.36,28.29s-2.93,29.81-2.93,29.81c10,11.44,40.41,14.84,57.12,8.51,0,0,.15-18.13-.37-25.65-.7-10.18-.35-31.69-.88-36.71A72,72,0,0,0,169.6,174.54Z" style="fill: rgb(55, 71, 79); transform-origin: 145.02px 208.206px;" id="elkltgnmhavsf" class="animable"></path><path d="M155.59,160.49,154,168.57c-6.37,2.92-15.42-.79-16.21-3.37l1.36-8.27Z" style="fill: rgb(177, 102, 104); transform-origin: 146.69px 163.285px;" id="elu5tat3gy6r" class="animable"></path><path d="M171,140.82l3.09,8.56-3.75,1.41C170.09,146.91,169.24,142,171,140.82Z" style="fill: rgb(154, 74, 77); transform-origin: 172.002px 145.805px;" id="elxbwp2m92yu" class="animable"></path><path d="M166.72,128.36c7.47,2.11,3.86,13.35,4,18.12.29,12.49-4,16.87-5.83,18.14-3.85,1.2-7.46.83-12-1.36-3.49-1.66-12.27-6.22-15.06-12.74-3.28-7.69-2.49-18.25,3.14-21.16C148.89,125.27,163.82,127.54,166.72,128.36Z" style="fill: rgb(177, 102, 104); transform-origin: 153.683px 146.142px;" id="elcmiz2lm9fqo" class="animable"></path><path d="M168.84,155.85l-.2,0h-.1l-.38-.14a3.17,3.17,0,0,1-.65-.36,6.53,6.53,0,0,1-.7-.58c-.11-.1-.21-.22-.32-.31s-.2-.18-.31-.15-.06.09-.08.09a3.62,3.62,0,0,0,.1.62l.05.09.13.18a2.44,2.44,0,0,0,.27.29,3.48,3.48,0,0,0,.67.53,4.36,4.36,0,0,0,1.57.61.34.34,0,0,0,.42-.34A.53.53,0,0,0,168.84,155.85Z" style="fill: rgb(154, 74, 77); transform-origin: 167.705px 155.517px;" id="el54vhckc154n" class="animable"></path><path d="M164.93,164.62c-1,.71-7.22,1.08-10.21.16l.44-2.31C155.79,163.2,161.3,165.31,164.93,164.62Z" style="fill: rgb(154, 74, 77); transform-origin: 159.825px 163.898px;" id="eln0qld56xw7i" class="animable"></path><path d="M166.82,138.74a9.75,9.75,0,0,1-2.7-.9c.23.1-.11,1.33-.17,1.5a3.73,3.73,0,0,1-1,1.42,3.15,3.15,0,0,1-3.08.78,13.84,13.84,0,0,1,.25,2.72,2.17,2.17,0,0,1-.45,1.54,1.21,1.21,0,0,1-1.29.28c-.86-.35-.73-1.49-1.1-2.2a4,4,0,0,0-1.75-1.7,3.64,3.64,0,0,0-4.49.76,7.57,7.57,0,0,0-1.2,7.09c2,4.53,4.94,2.67,4.94,2.67a10.39,10.39,0,0,1-.95,4.21,5.82,5.82,0,0,1-2.26,2.75c-6.5.34-11-1.06-13.43-3.5-1.47-3.44-3.7-7.34-4.27-11a42.07,42.07,0,0,1-.67-9.5,16.45,16.45,0,0,1,3.08-8.88,10.19,10.19,0,0,1,6.71-4c.24,0,.79-1.3,1-1.56a7.24,7.24,0,0,1,1.34-1.48,7.4,7.4,0,0,1,9.64,0,7.79,7.79,0,0,1,12.26,2.46,5.09,5.09,0,0,1,5.88.5c1.74,1.47,2.09,3.57,1.93,5.71,1.67.27,2.16,2.53,1.9,4a7.42,7.42,0,0,1-1.51,3.1,7.86,7.86,0,0,0-1.22,1.86,2,2,0,0,0,.3,2.09,4.09,4.09,0,0,1-4.68-1.71,3.19,3.19,0,0,1-2.78,1Z" style="fill: rgb(38, 50, 56); transform-origin: 155.083px 138.723px;" id="elyinfi9gmsyd" class="animable"></path></g></g><g id="freepik--character--inject-5" class="animable" style="transform-origin: 420.463px 236.538px;"><g id="freepik--bottom--inject-5" class="animable" style="transform-origin: 420.463px 289.35px;"><path d="M415.26,332.59c-.63,0-.53,1.82-.29,2.62s2.84,3.45,7.43,4.33,10.89-.07,13.6-.22,6.85,1.09,9.54,1.6c6.23,1.19,9.67-1.11,11.25-2.66a2.86,2.86,0,0,0,.63-2.25c-.08-1.79-.25-2.15-.46-2.13Z" style="fill: rgb(55, 71, 79); transform-origin: 436.118px 336.92px;" id="elz29t8iwq7x" class="animable"></path><path d="M456,328.14a33.27,33.27,0,0,1,1,3.7c.33,1.51.66,3.45-.35,4.67a8.54,8.54,0,0,1-6.06,2.92,18.81,18.81,0,0,1-7.95-.73c-2.38-.72-4.29-1.37-6.83-1.19-2.8.2-6.64.76-9.43.51a22.42,22.42,0,0,1-7-1.38,8.72,8.72,0,0,1-4.25-3.72,6.33,6.33,0,0,1,3.48-6.33,14.26,14.26,0,0,1,7-1.54c2.65,0,4.65.32,7,.13A11.53,11.53,0,0,0,437.4,324a4.63,4.63,0,0,0,1.45-2.1c.37-.83.49-1.58,1.24-1.66,0,0,12.36-.18,13.49-.14s1.14,1.79,1.21,2.71.08.82.14,1.61a11.79,11.79,0,0,0,.71,2.6C455.78,327.4,455.91,327.77,456,328.14Z" style="fill: rgb(69, 90, 100); transform-origin: 436.211px 329.832px;" id="elmkkri1u244k" class="animable"></path><path d="M430.7,324.74a1.74,1.74,0,0,0-.58-.2c-1.07-.15-1.88.91-2.33,1.74a6.52,6.52,0,0,0-.55,1.61,3.72,3.72,0,0,0,0,2.09c0,.18.19.38.37.33s.2-.24.21-.41a7.91,7.91,0,0,1,.78-2.82,3.18,3.18,0,0,1,.64-1,3.25,3.25,0,0,1,1.07-.68c.16-.06.88-.07.7-.38a.41.41,0,0,0-.15-.14Z" style="fill: rgb(250, 250, 250); transform-origin: 429.064px 327.422px;" id="elocpp3x3ey4r" class="animable"></path><path d="M433.8,324.71a2,2,0,0,0-1.42.42,2.89,2.89,0,0,0-.83,1.42,4.49,4.49,0,0,0,0,3.61c.2.32.49.15.6-.15a4.6,4.6,0,0,0,.11-1.11,10.29,10.29,0,0,1,.64-2.39,4,4,0,0,1,.44-.88,1.69,1.69,0,0,1,.47-.45,1,1,0,0,1,.29-.12,2.93,2.93,0,0,1,.29-.05c0-.15-.17-.23-.32-.26Z" style="fill: rgb(250, 250, 250); transform-origin: 432.781px 327.517px;" id="elekpkgsu7wk8" class="animable"></path><path d="M436.92,323.79a2.06,2.06,0,0,0-.91.62,2.74,2.74,0,0,0-.41,1,10.05,10.05,0,0,0-.4,2.36,3,3,0,0,0,.41,1.61c.12.19.35.37.55.28s.19-.46.21-.66c0-.38,0-.77,0-1.14a6.68,6.68,0,0,1,1.24-3.88.22.22,0,0,0,.06-.19c0-.1-.17-.1-.27-.09A2.52,2.52,0,0,0,436.92,323.79Z" style="fill: rgb(250, 250, 250); transform-origin: 436.436px 326.69px;" id="elrlygb1nby9" class="animable"></path><path d="M427.41,325.08c-1.09,0-3.37,1.52-4.45,4.88a19.21,19.21,0,0,0-.39,7.58,10.77,10.77,0,0,1-6.1-2.79,4.52,4.52,0,0,1-.48-7c1.57-1.92,4-3.2,7.86-3.45,4.33-.29,4.72.86,4.72.86Z" style="fill: rgb(250, 250, 250); transform-origin: 421.562px 330.897px;" id="elb9w2hqgzry5" class="animable"></path><path d="M454.89,300.37c-.1,6.9-.7,21.05-.7,21.05-1.78,2.56-6.47,3.11-9.34,2.87-2.67-.88-4.1,1.14-6,2.49,3-7-2.33-18.11-2.74-26Z" style="fill: rgb(255, 168, 167); transform-origin: 445.5px 313.575px;" id="elzqf72ze6rd7" class="animable"></path><path d="M384,362.93c-.63-.08-.6,1.8-.39,2.61s2.71,3.55,7.27,4.59,10.88.32,13.6.26,6.81,1.33,9.47,1.94c6.19,1.42,9.71-.76,11.35-2.25a2.83,2.83,0,0,0,.7-2.22c0-1.8-.17-2.17-.38-2.16Z" style="fill: rgb(55, 71, 79); transform-origin: 404.747px 367.859px;" id="el15zybjprnka" class="animable"></path><path d="M424.94,359.93a34.53,34.53,0,0,1,.91,3.74c.28,1.52.54,3.47-.51,4.66a8.55,8.55,0,0,1-6.17,2.7,19,19,0,0,1-7.91-1c-2.36-.81-4.24-1.53-6.79-1.44-2.8.11-6.66.52-9.44.18a22.87,22.87,0,0,1-6.9-1.63,8.77,8.77,0,0,1-4.11-3.87,6.33,6.33,0,0,1,3.71-6.2,14.16,14.16,0,0,1,7.06-1.29c2.64.08,4.63.48,7,.38a11.45,11.45,0,0,0,4.69-1,4.63,4.63,0,0,0,1.53-2c.39-.82.55-1.56,1.3-1.62,0,0,12.36.26,13.48.35s1.08,1.83,1.11,2.75.06.81.09,1.61a11.44,11.44,0,0,0,.62,2.63Z" style="fill: rgb(69, 90, 100); transform-origin: 405.052px 361.32px;" id="elbet5mftfrqw" class="animable"></path><path d="M399.73,355.64a1.67,1.67,0,0,0-.57-.23c-1.07-.19-1.91.85-2.39,1.66a6.94,6.94,0,0,0-.6,1.59,3.73,3.73,0,0,0-.1,2.09c.06.18.18.38.36.34s.21-.24.23-.4a8.17,8.17,0,0,1,.88-2.8,3.27,3.27,0,0,1,.68-1,3.08,3.08,0,0,1,1.09-.64c.16-.06.88,0,.71-.35a.4.4,0,0,0-.14-.15Z" style="fill: rgb(250, 250, 250); transform-origin: 398.006px 358.241px;" id="elrzh86m55pv8" class="animable"></path><path d="M402.83,355.72a2,2,0,0,0-1.43.36,3,3,0,0,0-.88,1.39,4.46,4.46,0,0,0-.17,3.61c.19.33.48.17.6-.13a4.51,4.51,0,0,0,.16-1.11,10.22,10.22,0,0,1,.72-2.36,4,4,0,0,1,.47-.86,1.52,1.52,0,0,1,.48-.43.86.86,0,0,1,.3-.12,2.85,2.85,0,0,1,.29,0c0-.15-.16-.24-.31-.28Z" style="fill: rgb(250, 250, 250); transform-origin: 401.709px 358.483px;" id="el85qjaqo70aa" class="animable"></path><path d="M406,354.91a1.84,1.84,0,0,0-.92.59,2.56,2.56,0,0,0-.45.94,9.93,9.93,0,0,0-.49,2.35,2.93,2.93,0,0,0,.36,1.62c.11.19.33.38.53.29s.21-.44.24-.65c0-.37,0-.76,0-1.14a6.61,6.61,0,0,1,1.38-3.83.26.26,0,0,0,.07-.18c0-.1-.17-.12-.27-.1A2.77,2.77,0,0,0,406,354.91Z" style="fill: rgb(250, 250, 250); transform-origin: 405.427px 357.758px;" id="elsb1blg4lm9" class="animable"></path><path d="M396.43,355.86c-1.09,0-3.42,1.39-4.62,4.72a19.18,19.18,0,0,0-.66,7.56,10.82,10.82,0,0,1-6-3,6.36,6.36,0,0,1-1.47-1.95,6.66,6.66,0,0,1,1.25-5.08c1.63-1.87,4.11-3.05,8-3.17,4.35-.14,4.69,1,4.69,1Z" style="fill: rgb(250, 250, 250); transform-origin: 390.606px 361.534px;" id="elj33c18ab66" class="animable"></path><path d="M425.2,332.07s-1.67,21.46-1.68,21.55c-.09,1.18-2.19,1.94-3.09,2.2a21.39,21.39,0,0,1-5.73.88,12.75,12.75,0,0,0-2.14.13,9.7,9.7,0,0,0-3.8,2,5,5,0,0,1,.56-1.81,5.57,5.57,0,0,0,.32-2.71c-.09-.7-.48-1.22-.61-1.9s-.19-1.53-.28-2.29q-.37-3.3-.7-6.62-.57-5.62-1.09-11.25l0-.36Z" style="fill: rgb(255, 168, 167); transform-origin: 416.08px 345.36px;" id="elquc9pr58vg" class="animable"></path><path d="M455.19,265.8s.44-26.58.28-37.39a121.6,121.6,0,0,0-3-22.5l-52.15,2.57s.4,26.32,1.13,47.11c.83,23.83,1.38,32.18,2.83,52.66.59,8.41,3.57,37.7,3.57,37.7s2.45,2.42,8.78,2.55a13.88,13.88,0,0,0,8.39-2.39s2.62-26.34,3.41-35.2a70.24,70.24,0,0,0-1.08-15.13L430,262.26s1.52,11.25,4.79,31.52c1.35,8.33,3.94,22.6,3.94,22.6s3.31,2,9.59,1.23c4.43-.56,5.5-1.4,6.47-2.3C454.75,315.31,457.94,281.45,455.19,265.8Z" style="fill: rgb(55, 71, 79); transform-origin: 428.314px 277.211px;" id="elninmwlrlbo" class="animable"></path><path d="M430,262.26l3.68-25.64s6.16-.81,14.2-8.09c0,0-.46,5.58-11.22,10.53l-4.17,22.1-.39,15.46C431.29,271.58,430.58,266.77,430,262.26Z" style="fill: rgb(38, 50, 56); transform-origin: 438.94px 252.575px;" id="ele18rmgy7y05" class="animable"></path></g><g id="freepik--top--inject-5" class="animable" style="transform-origin: 425.12px 163.741px;"><path d="M435.52,149.7l-2.35-11.88c.59-2.68,3.51-9.23,3.13-16.68s-11.66-17.63-20.13-15.73-12.47,7.17-14,13.85c-.95,4.07.18,4.49-.09,6.8-.56,4.55-.88,10.71,1.72,16.4a7.33,7.33,0,0,0,6.38,4.34,17.15,17.15,0,0,0,5.57-.47,54.3,54.3,0,0,1,.71,5.74,2.65,2.65,0,0,1-2.18,2.84Z" style="fill: rgb(255, 189, 167); transform-origin: 419.013px 130.044px;" id="elm6sdhbgw0oi" class="animable"></path><path d="M408.52,137.44a2.13,2.13,0,0,0,3.93-1.65Z" style="fill: rgb(177, 102, 104); transform-origin: 410.568px 137.268px;" id="elhj1zbzqnrbq" class="animable"></path><path d="M410.28,138.72a3,3,0,0,1,2.32-2.22,2.13,2.13,0,0,1-1.29,2.08A2.05,2.05,0,0,1,410.28,138.72Z" style="fill: rgb(242, 143, 143); transform-origin: 411.442px 137.618px;" id="el5fp0lx4ppnk" class="animable"></path><path d="M411.92,127.25a1.4,1.4,0,0,0,1.08,1.67,1.44,1.44,0,1,0-1.08-1.67Z" style="fill: rgb(38, 50, 56); transform-origin: 413.331px 127.519px;" id="ellkfjhgfbw68" class="animable"></path><path d="M412.52,122.86l3.1,1.31a1.77,1.77,0,0,0-.93-2.27A1.64,1.64,0,0,0,412.52,122.86Z" style="fill: rgb(177, 102, 104); transform-origin: 414.132px 122.973px;" id="el7x8bu4gi4pb" class="animable"></path><path d="M401.88,123.81l3-1.6a1.63,1.63,0,0,0-2.25-.74A1.79,1.79,0,0,0,401.88,123.81Z" style="fill: rgb(177, 102, 104); transform-origin: 403.292px 122.542px;" id="elgusixlteumq" class="animable"></path><path d="M402.51,126.87a1.27,1.27,0,1,0,1.1-1.47A1.3,1.3,0,0,0,402.51,126.87Z" style="fill: rgb(38, 50, 56); transform-origin: 403.765px 126.661px;" id="eleqogxuqfe8" class="animable"></path><path d="M403.24,133.1l5.15,1.62.42-9.78C406.91,124.5,405.07,129.18,403.24,133.1Z" style="fill: rgb(240, 153, 122); transform-origin: 406.025px 129.816px;" id="elh7f3pa5anp" class="animable"></path><path d="M415.72,146.33s4.55-1.23,5.78-2.14c3.33-2.44,4.44-4.17,5-6.49a9.56,9.56,0,0,1-4.41,7.71,31.84,31.84,0,0,1-6,2.63Z" style="fill: rgb(240, 153, 122); transform-origin: 421.11px 142.87px;" id="el48b11gbzpqo" class="animable"></path><path d="M438,117.11a7.11,7.11,0,0,0-2.79-4,2,2,0,0,0-.69-.27,8.52,8.52,0,0,0-8.12-9.31,29.89,29.89,0,0,1-3.89-.34,3.67,3.67,0,0,1-1-.35c-.92-.49-1.48-1.28-2.53-1.88-2.33-1.33-5.74-.73-6.55,2.1-1.67-1.49-3.48-1.1-5.49-.18a3.59,3.59,0,0,0-2.14,2.73,4.24,4.24,0,0,0,.14,1.86,3.93,3.93,0,0,0-5.22,2.59,2,2,0,0,0-.05.53,5.27,5.27,0,0,0,0,.57,4.78,4.78,0,0,1-.15,2.91,2.41,2.41,0,0,1-.4.6,1.79,1.79,0,0,1-2.67.2c0,1.79.95,3,2.82,2.54a3.94,3.94,0,0,0,.13,3.4,3.55,3.55,0,0,0,2.31,1.79,11.37,11.37,0,0,1,.37-3.31c.19-.77.4-1.52.64-2.26a16.22,16.22,0,0,0,4,.63,28,28,0,0,0,14.34-3.13,22.74,22.74,0,0,0-1,5.17,5.25,5.25,0,0,0,1.78,4.12c.55.4.47,1.25.41,1.84a7.25,7.25,0,0,0-.17,2.22,1.24,1.24,0,0,0,.1.31,1.22,1.22,0,0,0,1.88.4,5.28,5.28,0,0,0,1-1.91c1.29-3.73,4.95-4.25,6.66-2.66s1.85,3.42.79,6.76c-.71,2.24-2.8,3.55-4.53,3.05a2.78,2.78,0,0,1-.86-.43,4.93,4.93,0,0,0,2.21,4,5.66,5.66,0,0,0,3.77.45c.28-1.3,1.09-3.46,1.82-6.2.61-1.39,1.23-2.75,1.71-4a0,0,0,0,1,0,0q.24-.61.42-1.2C438.2,122.82,438.72,120.12,438,117.11Z" style="fill: rgb(177, 102, 104); transform-origin: 417.39px 119.137px;" id="eltmcj1y4t2ye" class="animable"></path><path d="M435.15,147.81c7.16-3,13.09.52,14.94,4.76,3.12,7.15,2.77,21.48,2.77,21.48L435.52,149.7Z" style="fill: rgb(55, 71, 79); transform-origin: 444.011px 160.37px;" id="elnfs5go1f7fq" class="animable"></path><path d="M444.12,149.08c4.64,2.18,7.89,11.82,8.41,18.79a111.81,111.81,0,0,1,.05,18.84,104,104,0,0,0,.08,13.89c.32,4.79,1.13,12.36,1.13,12.36s-6.62,10-22.8,13.28c-18,3.67-30.41-4.4-30.41-4.4,0-.3-.27-6-1.08-31.45-.47-14.93-.69-24.18,2.14-29.49,1.23-1.77.51-2.79,5.65-5.67,0,0,9.69-3.39,16.77-5.09C437.51,146.9,439.26,146.79,444.12,149.08Z" style="fill: rgb(69, 90, 100); transform-origin: 426.503px 187.355px;" id="elz6ye97ocuai" class="animable"></path></g></g><g id="freepik--character--inject-5" class="animable" style="transform-origin: 382.044px 265.68px;"><g id="freepik--bottom--inject-5" class="animable" style="transform-origin: 356.077px 316.367px;"><path d="M390.17,375.24s.5,0,.82,1.82,1.51,7.44,1.17,10.6c-3.37,3.12-10.16,3.47-14.07,2.46-5.84-1.5-9.53.34-14.78.62s-13.48-1.23-14.5-5.48,3.42-6.1,6.29-6.57l11.83-1.89Z" style="fill: rgb(38, 50, 56); transform-origin: 370.441px 383.006px;" id="elh7k0931vczd" class="animable"></path><path d="M390.2,361s.06,11.4.1,15c0,3.47-4.13,5.55-7.77,6-6.21.79-11,.63-17.71.67s-12.49-3-4.18-4.65,14.8-2.61,15.59-4.19c.89-1.75,0-7-.57-10.95Z" style="fill: rgb(200, 133, 106); transform-origin: 373.414px 371.835px;" id="eldr237t2uxsu" class="animable"></path><path d="M363.35,391.22a21.65,21.65,0,0,1,.07,6.43c-.57,1.4-3.24,2.69-4.44,3-3.4.8-3.81.59-9.24.87a23.91,23.91,0,0,0-4.38.51c-4.62,1.1-8.19,3-12.46,2.89-6.4-.15-11.06-2.13-13.33-5.11a7.21,7.21,0,0,1,.28-4.46c.88-2.15,3.68-3.48,5.72-4,5.51-1.48,8.21-2.39,12.39-3.78a55.13,55.13,0,0,0,6.49-2.75c1.82-.91,3-2.49,5.09-2.62s4.08.62,6.07,1.1,4.33,1.14,6.47,1.59C362.81,385,362.26,385.56,363.35,391.22Z" style="fill: rgb(38, 50, 56); transform-origin: 341.484px 393.555px;" id="elbsnb68ki2e" class="animable"></path><path d="M363.7,367.24c-.27,2.65-1,10.16-1.26,12.81-.22,2.18-.28,4.42-.38,6.61a4.35,4.35,0,0,1-.24,1.49,3.53,3.53,0,0,1-1.72,1.58c-5.1,2.69-8.67,2.94-14.25,4a89,89,0,0,1-11.69,1.86c-3,.11-6.37-.06-8-1.73-.75-.8-.54-2.23,2.74-3.28s6.24-1.92,9.54-3.27a41.65,41.65,0,0,0,6-2.83,5.68,5.68,0,0,0,2.32-2.08,7.63,7.63,0,0,0,.61-3.28c0-1.45-.07-2.9-.12-4.35-.1-2.46-.18-4.93-.28-7.39C347,367.4,363.71,367.1,363.7,367.24Z" style="fill: rgb(200, 133, 106); transform-origin: 344.751px 381.41px;" id="elbfbutby6sa" class="animable"></path><path d="M366.3,313h0a51.5,51.5,0,0,1,1.49,12.43c-.38,8.37-.67,10.55-1.57,20.37-1.39,15.18-3,30.3-3,30.3-1,.82-2,1.68-9.07,2a17.21,17.21,0,0,1-7.12-1.53s-3.11-24.49-4.36-35.39c-2.11-18.45-3.37-42.46-4-61.61-.62-18.72-.53-45.63-.53-45.63l50.27-6.13s5.4,9,4.24,25.31-3.58,50.82-3.87,53.07,3.08,9,3,20.81-1.2,38.52-1.2,38.52-6.26,4.53-15,.63C374,356.44,366.3,313,366.3,313Z" style="fill: rgb(69, 90, 100); transform-origin: 365.474px 302.955px;" id="elb5w0ppaeva" class="animable"></path><path d="M370,261s6.49-1,13.91-8.35c0,0-.65,6.23-11.52,11.17L368.72,313c1.57,6.15,2.55,17,1.55,22.53l-2.72-15.47A36.21,36.21,0,0,0,366.3,313Z" style="fill: rgb(55, 71, 79); transform-origin: 375.105px 294.09px;" id="elm8a73hlyceg" class="animable"></path></g><g id="freepik--top--inject-5" class="animable" style="transform-origin: 389.247px 187.302px;"><path d="M444.72,189.68c-.23-1-1.21-1-2-1a7.44,7.44,0,0,0-4.2,2.25,45.36,45.36,0,0,0-3.68,3.52,10.51,10.51,0,0,1-3.86,2.77c-1,.47-2.28.56-1.88-.88.49-1.7,1.73-3.6,1.15-5.47-.4-1.29-1.42-1.22-2.16-.33a38.45,38.45,0,0,1-3.95,4.12c-1.44,1.3-3,2.43-4.4,3.77a23.47,23.47,0,0,0-2,2.29c-1.78,2.23-4.58,2.56-7.14,3.15-1.75.41-4.86,1-7.58,1.5-2.4-5.36-10.61-22-14.24-27.35-3.82-5.58-7-5.24-14.32-6.13l4,25.24s8.51,14,12.65,18.76,8.06,5,12.93,3.65c5.08-1.43,13.84-5.91,18.7-8,2.25-1,4.46-1.69,6.78-2.48a54.62,54.62,0,0,0,6.84-3.43,6.89,6.89,0,0,0,2.62-2.52c.42-.67.36-1.49.75-2.13s1.18-.89,1.46-1.74-.1-1.91.23-2.74a21.92,21.92,0,0,0,1.18-2.6,5,5,0,0,1,.85-2.17C443.81,191.23,444.93,190.57,444.72,189.68Z" style="fill: rgb(200, 133, 106); transform-origin: 409.603px 196.071px;" id="el21lsd6463ou" class="animable"></path><path d="M340.88,141.5a5.76,5.76,0,0,1-.93-5.66c.6-1.88,2-3.92,6.22-6.47,5-3,19.25-5.85,26.93,3.07,1.11,1.28-11.31,28.68-10.27,34.13C358.93,163,346,150.2,346,150.2c-2.94-1-4.73-2-5.51-4.62A6.65,6.65,0,0,1,340.88,141.5Z" style="fill: rgb(38, 50, 56); transform-origin: 356.377px 146.502px;" id="elq7kyhssdadb" class="animable"></path><path d="M343.5,148.86s-3.46,6.56-3,7a20.63,20.63,0,0,0,3,1.71Z" style="fill: rgb(175, 97, 82); transform-origin: 341.979px 153.215px;" id="elzv7i1zla2nd" class="animable"></path><path d="M347.57,137.06c-2.51,1.39-4.63,3.52-5.08,9.25-.11,1.5,1.18,3.46.78,5.47-1.72,8.61,1.4,15.5,3.15,16.95,1.17,1,7,1.08,10,0,3.75-1.31,11.8-5.58,15.38-11.79,4.21-7.32,4.69-16.82-.72-20.28C363.46,131.83,350.25,135.58,347.57,137.06Z" style="fill: rgb(200, 133, 106); transform-origin: 358.766px 151.892px;" id="elr6f7w3hongh" class="animable"></path><path d="M346.69,159.49v-.1s0-.1-.06-.11-.09,0-.12.06a5.5,5.5,0,0,1-1.88,1.36.93.93,0,0,0-.45.29.31.31,0,0,0,.24.49,1.29,1.29,0,0,0,.58-.12,1.54,1.54,0,0,0,.34-.17,3.81,3.81,0,0,0,.67-.53A1.68,1.68,0,0,0,346.69,159.49Z" style="fill: rgb(175, 97, 82); transform-origin: 345.406px 160.379px;" id="elpmi65oqtyo" class="animable"></path><path d="M369,161.17l2.17,10.36h0c2.37.35,2.76,3.1,1.74,5.26l.72,2.91-15.76,3.94-2.71-14.51Z" style="fill: rgb(200, 133, 106); transform-origin: 364.395px 172.405px;" id="elphzwewy184" class="animable"></path><path d="M346.74,168.92c1.4.67,4.42,1,8.43.21l-.37-2a25.38,25.38,0,0,1-3.88,1.38A14.35,14.35,0,0,1,346.74,168.92Z" style="fill: rgb(175, 97, 82); transform-origin: 350.955px 168.36px;" id="elo2yjl9o0gk8" class="animable"></path><path d="M343.93,140.34c.09,3.69,4.34,4.36,6,5a8,8,0,0,0-.4,4.38c.49,1.85,1.3,3.33,3.18,3.84,1.15.3,1.45-.21,1.79-1.13.49-1.3,1.08-3.28,3.82-3.08,3.13.23,4.25,4.86,2.63,8a4.56,4.56,0,0,1-3.35,2.58,2.85,2.85,0,0,1-2.18-.87,10.91,10.91,0,0,0,6.57,7.12s2.92,2,8.25.08a106.28,106.28,0,0,0,6.38-8.94c5.2-8.65,5.38-23.88-4.55-26-.48-.1-9.4-.77-13.65.44C345.41,135.51,343.92,139.7,343.93,140.34Z" style="fill: rgb(38, 50, 56); transform-origin: 362.035px 149.069px;" id="elgf7jo63yt1r" class="animable"></path><path d="M367.4,130.64a5.61,5.61,0,0,0-2,3.66,4.08,4.08,0,0,0,1.65,3.75c3,2,7.24-.82,7.55-4.14C374.93,130,370.12,128.33,367.4,130.64Z" style="fill: rgb(251, 0, 0); transform-origin: 369.995px 134.152px;" id="elh583cf4xe27" class="animable"></path><path d="M369.78,131.73c-2.8,2-4.34,6.28-2.6,9.22.48.8,1.12,1.5,1.53,2.34,1.3,2.69-.15,5.84-.31,8.83a13,13,0,0,0,1.61,6.79c1.06,1.5,3.22,1.77,4.17,3.37.66,1.1.35,2.5.65,3.75.67,2.68,3.95,3.78,6.72,3.67,2.35-.1,4.84-.85,6.23-2.74a31.56,31.56,0,0,1,1.9-3c1.54-1.65,4.21-1.74,5.89-3.25a5.84,5.84,0,0,0,1.64-4.91,15,15,0,0,0-1.69-5.07c-1.36-2.81-.53-4.65-.11-7.56a7,7,0,0,0-4.62-7.39c-2.06-.66-4.49-.37-6.2-1.71-.92-.72-1.47-1.83-2.32-2.64C379,128.3,373.06,129.42,369.78,131.73Z" style="fill: rgb(38, 50, 56); transform-origin: 381.855px 149.607px;" id="elgip2z8yzktl" class="animable"></path><path d="M384.26,179.28c-1.72-4.56-6.61-6.72-8.07-7.05s-5-.7-5-.7c.93,1.8-.36,3.1-2.72,3.8-3,.92-7.71,1.3-11-.62l-1.36-.73s-7.89,2.56-10.1,3.75c-.67.37-5.6,1.33-10.78,15.27-2.22,6-2.39,12.54,2.62,16.42.5,3.66,0,12,0,12-.28,11.59-.54,21-.54,21s5.46,6.49,28,5.68c21.5-.77,27.12-9.93,27.12-9.93-.48-4.27-6.2-17.36-5.86-22.41C387.08,208.36,389.52,193.22,384.26,179.28Z" style="fill: rgb(251, 0, 0); transform-origin: 363.089px 209.85px;" id="ellz5sdifcy0l" class="animable"></path></g></g><g id="freepik--character--inject-5" class="animable" style="transform-origin: 297.135px 278.145px;"><g id="freepik--bottom--inject-5" class="animable" style="transform-origin: 293.308px 334.973px;"><path d="M325.43,404a.53.53,0,0,1,.25.28,2.41,2.41,0,0,0,.44.78,4.15,4.15,0,0,1-.4,3.15,6.62,6.62,0,0,1-2.35,2,11.11,11.11,0,0,1-10.63-.11,8.2,8.2,0,0,1-2.05-1.85,11.71,11.71,0,0,0-1.82-1.77,12.15,12.15,0,0,0-1.9-1.15c-1.73-1-3.7-1.61-5.27-2.9a9.18,9.18,0,0,1-3.43-5.17,11.71,11.71,0,0,1-.23-4.89c.13-.66.43-1.44,1.08-1.55s1.14.47,1.54,1a36.41,36.41,0,0,0,10.27,9.46A20,20,0,0,0,323.68,404C324.12,403.94,325,403.7,325.43,404Z" style="fill: rgb(38, 50, 56); transform-origin: 312.075px 401.158px;" id="elidgl5rf5kx9" class="animable"></path><path d="M319.67,410.12a9.6,9.6,0,0,1-6.33-1.05,19.92,19.92,0,0,1-2.89-2.21,26.57,26.57,0,0,0-5.11-3.65c-.85-.43-1.76-.79-2.57-1.3a10.46,10.46,0,0,1-4.4-6.67,8.5,8.5,0,0,1-.1-3.85c.7-2.85,3.55-4.45,6.34-4.42a11.33,11.33,0,0,1,3.57.75,12.77,12.77,0,0,1,1.94.84c.48.26.94.58,1.44.81a7.13,7.13,0,0,0,3.36.46c1.76,0,3.52-.11,5.28-.12,1.31,0,3.41-.45,4.07,1a5,5,0,0,1,.27,2.07,27.12,27.12,0,0,0,.18,3.25,26.71,26.71,0,0,0,.64,3.08,28.37,28.37,0,0,1,.75,5.58,3.59,3.59,0,0,1-1.88,3.73A10.7,10.7,0,0,1,319.67,410.12Z" style="fill: rgb(55, 71, 79); transform-origin: 312.124px 398.619px;" id="el4ufhtf53upf" class="animable"></path><path d="M302.31,401.61c-.3-1.49.63-6.82,3.35-9.6a11.09,11.09,0,0,1,5.18-3.24s-3.28-2.21-6.51-2-6,2-6.27,5.29S298.63,399.33,302.31,401.61Z" style="fill: rgb(38, 50, 56); transform-origin: 304.427px 394.183px;" id="el5cm6uw7ntz8" class="animable"></path><path d="M324.38,370.76s-.51,17.87-.47,21.53c0,1.56-3.39,3.64-8.43,3.71-3.54.05-6-1.72-6.47-3.39s-3.06-20-3.06-20Z" style="fill: rgb(255, 168, 167); transform-origin: 315.165px 383.381px;" id="elbl2tq0o4zld" class="animable"></path><path d="M287.05,411.14a.54.54,0,0,1,.23.3,2.33,2.33,0,0,0,.37.81,4.11,4.11,0,0,1-.64,3.11,6.62,6.62,0,0,1-2.49,1.81,11.13,11.13,0,0,1-10.6-.93,8.45,8.45,0,0,1-1.9-2,11.67,11.67,0,0,0-1.67-1.91,13.12,13.12,0,0,0-1.81-1.29c-1.64-1.15-3.56-1.89-5-3.3a9.17,9.17,0,0,1-3-5.42,11.67,11.67,0,0,1,.15-4.89c.18-.66.54-1.4,1.2-1.47s1.1.56,1.46,1.1a36.41,36.41,0,0,0,9.5,10.23A20,20,0,0,0,285.3,411C285.75,411,286.61,410.84,287.05,411.14Z" style="fill: rgb(38, 50, 56); transform-origin: 274.039px 407.025px;" id="eledtobz6z11w" class="animable"></path><path d="M280.83,416.83a9.66,9.66,0,0,1-6.23-1.54,20.11,20.11,0,0,1-2.71-2.43,26.78,26.78,0,0,0-4.8-4c-.83-.5-1.7-.93-2.47-1.5a10.47,10.47,0,0,1-3.87-7,8.63,8.63,0,0,1,.21-3.85c.91-2.79,3.88-4.16,6.66-3.91a11.45,11.45,0,0,1,3.5,1,12.4,12.4,0,0,1,1.87,1c.46.3.9.65,1.37.92a7.17,7.17,0,0,0,3.31.72c1.76.11,3.52.17,5.28.29,1.31.09,3.43-.18,4,1.35A5.07,5.07,0,0,1,287,400a21.43,21.43,0,0,0,.33,6.37,28.67,28.67,0,0,1,.31,5.63,3.59,3.59,0,0,1-2.17,3.57A10.62,10.62,0,0,1,280.83,416.83Z" style="fill: rgb(55, 71, 79); transform-origin: 274.146px 404.723px;" id="elgihpmxc8l3" class="animable"></path><path d="M264.19,407c-.18-1.51,1.16-6.75,4.09-9.31a11.08,11.08,0,0,1,5.41-2.83s-3.1-2.45-6.33-2.48-6.15,1.5-6.67,4.78S260.69,404.42,264.19,407Z" style="fill: rgb(38, 50, 56); transform-origin: 267.104px 399.69px;" id="el8fgxf85rahv" class="animable"></path><path d="M288.59,378s-1.89,17.77-2.14,21.42c-.11,1.56-3.66,3.36-8.7,3-3.53-.23-5.79-2.17-6.18-3.88s-1.5-20.14-1.5-20.14Z" style="fill: rgb(255, 168, 167); transform-origin: 279.33px 390.233px;" id="elusnduz7i6x" class="animable"></path><path d="M270.41,388.54l.73,5.56s1.68,2.15,8.13,2,7.87-2.2,7.87-2.2l.5-4.83Z" style="fill: rgb(38, 50, 56); transform-origin: 279.025px 392.324px;" id="elpv5proqrhvh" class="animable"></path><path d="M306.8,382.25l1.1,4.7s3.25,2,8.89,1.33,7.44-2.38,7.44-2.38l.46-6.23Z" style="fill: rgb(38, 50, 56); transform-origin: 315.745px 384.044px;" id="elxk0f35nild" class="animable"></path><path d="M325.85,342.45a113,113,0,0,0-1.54-18.14s-.57-34.31,0-45.48-1-26.45-1-26.45l-56.05-.53s-1.62,23.33-1.71,46c-.06,14,.31,40.67,1.06,61.37.57,15.78,1,27.87,3.81,29.49,0,0,2.36,2.73,8.69,2.79a14.11,14.11,0,0,0,8.33-2.25c3.72-2.58,3.63-16.29,3.86-26.11.08-3.67,5.84-45.23,5.84-45.23,1,10.57.75,14.06,2.93,32.12,1.08,8.94,3.43,21.4,4.09,25.16s1.12,6.59,3.14,7.68c2.87,1.54,13.47.82,17-1.65,1.63-1.14,1.66-4.28,1.72-11.54C326,367.16,325.9,352.63,325.85,342.45Z" style="fill: rgb(55, 71, 79); transform-origin: 295.782px 321.683px;" id="elkpo14dbw0bc" class="animable"></path><path d="M297.13,317.74,301.48,283s6.21-.39,14.74-7.33c0,0-.85,5.73-11.93,10.06l-5.06,33.45-.91,14C297.91,327.92,297.44,322.44,297.13,317.74Z" style="fill: rgb(38, 50, 56); transform-origin: 306.675px 304.425px;" id="elu97s9sd8nh" class="animable"></path></g><g id="freepik--top--inject-5" class="animable" style="transform-origin: 299.874px 204.46px;"><g id="freepik--arm--inject-5" class="animable" style="transform-origin: 320.134px 216.22px;"><path d="M311.41,185.39c7.1.57,11.07,1.63,14.8,8.37a53.94,53.94,0,0,1,2.94,6.37c.77,2,1,3.93,1.6,5.93a82.27,82.27,0,0,1,3,14.46,14.62,14.62,0,0,1,0,4.43c-.84,4.27-4.44,8.18-7.12,11.51-1.79,2.24-3.61,4.47-5.24,6.83-1.07,1.55-3.28,3.78-5.45,3.76a4,4,0,0,1-1.41-.32,15.53,15.53,0,0,1-8-7.73,1.31,1.31,0,0,1-.18-.57,1.38,1.38,0,0,1,.33-.81l8.36-12.16a5.77,5.77,0,0,0,1.16-2.45,5.36,5.36,0,0,0-.14-1.59,70.56,70.56,0,0,0-2.2-8.55c-.47-1.44-1-2.86-1.55-4.28a14.38,14.38,0,0,1-1.18-3.23Z" style="fill: rgb(69, 90, 100); transform-origin: 320.134px 216.22px;" id="elpzhn89xlr3" class="animable"></path></g><polygon points="290.01 182.36 291.23 197 309.53 193.27 307.26 178.08 290.01 182.36" style="fill: rgb(255, 168, 167); transform-origin: 299.77px 187.54px;" id="el5w4uc5qwuco" class="animable"></polygon><path d="M280,158.27a63.77,63.77,0,0,0-4.33,9.42l4.32,1.78C280.77,165.05,281.2,160.94,280,158.27Z" style="fill: rgb(242, 143, 143); transform-origin: 278.208px 163.87px;" id="el4z6pglh38f3" class="animable"></path><path d="M287.74,145.48c-5.53.27-10.32,6.28-7.86,15.07a25.79,25.79,0,0,1-.42,4.28c-1,7.77.2,14.55,1.76,16.24a16.33,16.33,0,0,0,12.62,1.53c3.82-.93,13.49-3.66,17.67-9.67,4.91-7.07,6.42-16.8,1.49-20.94C306.05,146.16,290.79,145.33,287.74,145.48Z" style="fill: rgb(255, 168, 167); transform-origin: 297.562px 164.348px;" id="elzvh8zes0g8m" class="animable"></path><path d="M281.22,181.07c.86.93,5.72,3.06,8.87,2.77l-.11-2A24.25,24.25,0,0,1,281.22,181.07Z" style="fill: rgb(242, 143, 143); transform-origin: 285.655px 182.468px;" id="elo5cz28smtm" class="animable"></path><path d="M285.83,166.05a1,1,0,0,0,1.86,0,13.72,13.72,0,0,1,1.62-2.61,5,5,0,0,1,3.19-1.67c4.61-.37,4.45,5.81,2.54,8.26-3.13,4-5.54,1.35-5.54,1.35s-.78,6.54,3.6,9.33c0,0,9.32,1.44,14.27-1a112,112,0,0,0,7.47-11.88c4.85-9.53,3.52-18-.83-19.77-.26-3.07-2.62-7.37-9.26-9-6.34-1.57-10.27-.7-14.52.22s-9.22,3.71-13.73,1a8.26,8.26,0,0,0,1.83,7.32,2.73,2.73,0,0,0-1.56,5.23,2.15,2.15,0,0,0-.57,2.67,2.61,2.61,0,0,0,2.49,1.29,11,11,0,0,0,2.67-.6c.05,2.1,2.76,4,5.09,3.47-.07,0-.3.54-.33.61a5.58,5.58,0,0,0-.28.67,7.45,7.45,0,0,0-.35,1.39,7.31,7.31,0,0,0,.11,2.87A2.44,2.44,0,0,0,285.83,166.05Z" style="fill: rgb(38, 50, 56); transform-origin: 296.409px 159.663px;" id="el7k5vi65lzm4" class="animable"></path><path d="M316.94,187.37c4.59,2.63,8,11.3,7.62,18.5-.26,4.56-1.27,16.63-1.62,26.73-.12,3.31,1.57,28.45,1.57,28.45s-7.65,8.23-26.07,9.45c-21.69,1.44-32.61-4.45-32.61-4.45s.67-21.3,1.33-35.3c1-20.76,2.92-26.81,6.23-33.85,1.1-2.08,1.58-3.75,5-5.06l12.12-3.12c5.75.23,15.15-.75,17.87-3l-.11-.92C313.2,185.25,314.1,185.75,316.94,187.37Z" style="fill: rgb(240, 240, 240); transform-origin: 295.209px 227.763px;" id="elr5pj0pib1u" class="animable"></path></g></g><g id="freepik--character--inject-5" class="animable" style="transform-origin: 196.369px 278.34px;"><g id="freepik--bottom--inject-5" class="animable" style="transform-origin: 212.357px 327.249px;"><path d="M225.56,412.53a.57.57,0,0,0-.24.29,4.92,4.92,0,0,0-.06,2.16,3.4,3.4,0,0,0,.88,2.07,6.21,6.21,0,0,0,2.07,1.34,11.5,11.5,0,0,0,10.81-.51,6.9,6.9,0,0,0,1.89-1.68,21.56,21.56,0,0,1,1.63-2.17,9.08,9.08,0,0,1,1.52-1.26c1.66-1.12,3.59-1.83,5.09-3.21a9.2,9.2,0,0,0,3.12-5.36,12.07,12.07,0,0,0-.06-4.9c-.17-.65-.52-1.41-1.17-1.48s-1.12.54-1.48,1.07a36.68,36.68,0,0,1-9.69,10.05,20,20,0,0,1-12.56,3.52C226.86,412.42,226,412.23,225.56,412.53Z" style="fill: rgb(55, 71, 79); transform-origin: 238.83px 408.657px;" id="elfgy2mim0xvl" class="animable"></path><path d="M231.55,417.89c2.24.16,4.42.31,6.37-1a19.48,19.48,0,0,0,2.76-2.38,26.34,26.34,0,0,1,4.88-3.94c.83-.49,1.71-.9,2.5-1.45a10.54,10.54,0,0,0,4-6.93,8.43,8.43,0,0,0-.13-3.84c-.87-2.81-3.81-4.24-6.59-4a11.52,11.52,0,0,0-3.52,1,13.36,13.36,0,0,0-1.89.95c-.46.3-.9.64-1.39.9a7.16,7.16,0,0,1-3.32.66c-2.57.11-5.16.12-7.72.36-1.31.12-1.07,1.91-1.09,2.86s-.05.84-.07,1.66a33.51,33.51,0,0,1-1,5,27.85,27.85,0,0,0-.42,5.62,3.49,3.49,0,0,0,2.1,3.38A10.51,10.51,0,0,0,231.55,417.89Z" style="fill: rgb(69, 90, 100); transform-origin: 238.566px 406.159px;" id="el012ii0rc3m5d" class="animable"></path><path d="M251.06,405.44c0-3.9-5.84-9-11.6-8.65,1.11-1.88,4.92-3.14,8.08-2.46S254.46,398.1,251.06,405.44Z" style="fill: rgb(250, 250, 250); transform-origin: 245.931px 399.792px;" id="elb55z7z950n" class="animable"></path><path d="M224.65,376.93l2.36,23c0,1.55,3.32,3.49,8.07,3.36,3.34-.1,5.53-1.95,5.95-3.64s2.88-22.37,2.88-22.37Z" style="fill: rgb(255, 196, 195); transform-origin: 234.28px 390.113px;" id="ela15jbcmbddf" class="animable"></path><polygon points="180.66 380.47 184.86 362.25 201.75 368.44 190.32 389.55 180.66 380.47" style="fill: rgb(255, 196, 195); transform-origin: 191.205px 375.9px;" id="elnllqfdmbs6" class="animable"></polygon><path d="M174.48,385.38a12.62,12.62,0,0,0,.18,4.7c.19,1.56.4,3.09.51,4.66a17.81,17.81,0,0,0,.36,2.83,17,17,0,0,1,.1,3.42c0,1.2,0,2.39,0,3.59a6.52,6.52,0,0,1,0,1.53c-.13.5,7.53,5,10.62,6.71.18.1.36.18.56.28a4.91,4.91,0,0,0,5.06-1.14,8.58,8.58,0,0,0-2-9.45s-.39,0-.29-3c0-2.16.07-4.36.3-6.51.14-1.36.7-1.79,1.23-3.05s1.39-2.35,1.35-3.64a9.29,9.29,0,0,0-1.35-3.45c-1.12-2-3.59-3.58-5.59-4.5-1.14-.52-3-1.1-4.18-.4-.63.38-.94,1.12-1.4,1.7a8.5,8.5,0,0,1-2,1.64,7.86,7.86,0,0,0-3.33,3.73C174.55,385.13,174.51,385.26,174.48,385.38Z" style="fill: rgb(69, 90, 100); transform-origin: 183.426px 395.505px;" id="elywjgc8pdwva" class="animable"></path><path d="M189.88,402.51a10.43,10.43,0,0,1,1,1.46h0a10.89,10.89,0,0,1,1,8c5.44-.44,6.9-3.57,6.9-3.57s.33-2.71-2.78-4.71a8,8,0,0,0-1.18-.63l-.06,0A8,8,0,0,0,189.88,402.51Z" style="fill: rgb(250, 250, 250); transform-origin: 194.335px 407.16px;" id="elowfq4th755" class="animable"></path><path d="M173.2,386.22c-1.43.54-1.1,4.47-.23,8.26s1.35,5.11.86,8.25-.77,4.54.5,5.71,11.43,6,11.43,6a37.35,37.35,0,0,1-2.17-11.83c-.2-7-.63-11.46-3.83-14.66A6.11,6.11,0,0,0,173.2,386.22Z" style="fill: rgb(38, 50, 56); transform-origin: 178.991px 400.164px;" id="elgbbey1sttqd" class="animable"></path><path d="M198.79,408.39a19,19,0,0,1-8.54,3.63c-4.56.48-4.77-1.27-5.2-6.67s-.54-12.86-2.63-16.16-5.66-4.79-7.06-4.47c-.29-.15-1.69.87-2.16,1.5a7.79,7.79,0,0,1,5.94,2.44c2.82,2.81,3.28,8.68,3.36,14s.26,11.51,4.5,12.2a15.43,15.43,0,0,0,11.6-3.41C200.24,410.13,198.79,408.39,198.79,408.39Z" style="fill: rgb(55, 71, 79); transform-origin: 186.291px 399.821px;" id="elhad7hbtf33k" class="animable"></path><path d="M189.58,400.52a1.53,1.53,0,0,1,.62,1,3.07,3.07,0,0,1-1.57,2.78c-.58.32-1.07.19-.13-.93A5.88,5.88,0,0,0,189.58,400.52Z" style="fill: rgb(250, 250, 250); transform-origin: 189.087px 402.486px;" id="elpojns1zh4" class="animable"></path><path d="M189.7,396.77a1.29,1.29,0,0,1,.38.82,4.66,4.66,0,0,1-1.9,2.92c-1,.44-.45-.66,0-1.17A19.61,19.61,0,0,0,189.7,396.77Z" style="fill: rgb(250, 250, 250); transform-origin: 188.849px 398.691px;" id="elgr18f2l7nrm" class="animable"></path><path d="M190,392.64a.91.91,0,0,1,.46.67c0,.44-2,2-2.68,1.9s-.79-.26,0-.8S190,392.64,190,392.64Z" style="fill: rgb(250, 250, 250); transform-origin: 188.844px 393.927px;" id="elv4g6td7dut" class="animable"></path><path d="M196.9,378.53s3.43-6,13.46-26.54c5.44-11.1,7-16.88,7.88-21s1.31-15.55,1.31-15.55l2.56,20.49c-.91,5.43-2.33,16.19-.66,27.27,2.05,13.67,4.24,30.34,4.24,30.34,1.13.87,5.42,1.66,8.36,1.45,7.34-.54,8.7-3.51,8.7-3.51s3.56-28.8,4.49-38.27c2.17-22.27,2.8-27.52,4.14-53.18,1.13-21.72-.8-35.18-6.72-54.71-16,7.06-37.54,5.5-46.37-2.52,0,0-8.94,15.73-8.8,31.09.15,16.08,1.94,52.74,1.94,52.74-3.63,7.64-4.94,14.73-6.25,23.94-1.17,8.25-2.57,19.91-2.57,19.91C191.7,370.32,196.9,378.53,196.9,378.53Z" style="fill: rgb(55, 71, 79); transform-origin: 217.149px 318.912px;" id="el6nbdx3hlsib" class="animable"></path><path d="M241.38,270.9a99,99,0,0,0-4.9-22.83c.42-.1.84-.21,1.25-.33a86.66,86.66,0,0,1,5.44,23.08c3.92-.86,4.7-6.4,4.61-9.73a43.66,43.66,0,0,0-.68-5.91c-.22-1.34-.55-2.74-.78-4.13,1.09,3.91,2,7.63,2.76,11.26,0,.15,0,.3,0,.45-.24,3.58-1.85,8.53-5.77,9.4.74,7.5.89,15.11,1,22.6q.34,30.09-1.84,60.15c-.67,9.19-2.84,30.19-4.14,39.34-.52.15-1.1.29-1.75.41.68-8,3.17-27.68,3.79-35.69q1.16-14.82,1.69-29.7.56-15.45.47-30.92C242.44,289.2,242.32,280,241.38,270.9Z" style="fill: rgb(38, 50, 56); transform-origin: 242.78px 321.2px;" id="eluyj86k5e9yb" class="animable"></path><path d="M244.66,245.3l-1.23-7.75s-10.44,5.72-22.81,4.86A39.65,39.65,0,0,1,200.16,235l-1.87,7.74s5.19,7.75,22.38,7.67S244.66,245.3,244.66,245.3Z" style="fill: rgb(38, 50, 56); transform-origin: 221.475px 242.705px;" id="eleyxmalq2azo" class="animable"></path><path d="M219.55,315.42l-4-34.28s-5.7.33-14.41-7.46c0,0,1.34,6.55,10.74,11.12l5,29.46L218.24,331A112.73,112.73,0,0,0,219.55,315.42Z" style="fill: rgb(38, 50, 56); transform-origin: 210.345px 302.34px;" id="elw77bayz2zen" class="animable"></path></g><g id="freepik--top--inject-5" class="animable" style="transform-origin: 193.816px 192.342px;"><path d="M205.64,188.53c-7,0-10.53.53-17.25,10.09L175.62,216.8s-14.77-6.12-18.31-8.7-1.93-3.76-3.12-8.79c-1-4.14.14-6-.81-7.2-.77-1-3.07.06-3.24,5.38,0,.87-.07,3.17-1.41,3.11-1.12,0-1.75-1.64-2.08-2.45-1.62-3.9-.62-8.56-3-12.2a1.94,1.94,0,0,0-.79-.79.83.83,0,0,0-1,.22,1.45,1.45,0,0,0-.14.46c-.32,2.13.06,4.34-.36,6.45-.32,1.57-1.06,3.09-.88,4.68.07.63.29,1.24.31,1.88a13.85,13.85,0,0,1-.49,2.6c-.34,2.11,1,4.2,1.78,6.07a23.13,23.13,0,0,0,3.42,5.52c.56.68,5.62,4.25,7,5.2,3.27,2.31,12.39,8.24,18.78,11.9,5.73,3.28,8.29,3.89,13-.84,6.1-6.08,13-14,13-14Z" style="fill: rgb(255, 196, 195); transform-origin: 172.943px 208.901px;" id="elurdp5lb7bm" class="animable"></path><path d="M243,162.93s3.33,6.85,2.8,7.32A8.36,8.36,0,0,1,243,171Z" style="fill: rgb(255, 168, 167); transform-origin: 244.429px 166.965px;" id="elfpvpfe6gn1" class="animable"></path><path d="M235.53,146.29c2.65,1.88,7.42,4.14,8.42,12.72.18,1.48-.71,3.59-.76,5.41-.05,2.05.48,4.41.29,6-1,8.43-3.93,11.31-5.59,12.47-1.33.93-7.42.43-10.42-1-3.76-1.78-11.68-7.19-14.72-14.23-3.58-8.28-3.05-18.53,3-21.68C224.19,141.56,232.9,144.43,235.53,146.29Z" style="fill: rgb(255, 196, 195); transform-origin: 227.245px 163.503px;" id="elsksqq0bmq1g" class="animable"></path><path d="M240.26,173.74h0S240.25,173.68,240.26,173.74Z" style="fill: rgb(255, 168, 167); transform-origin: 240.258px 173.727px;" id="elt6ii1stfa9" class="animable"></path><path d="M242.1,174.57c-.14-.09-.3-.13-.45-.21l-.05,0-.07-.05a.88.88,0,0,1-.17-.12l-.13-.11h0l0,0-.09-.09c-.11-.11-.19-.25-.3-.36a.39.39,0,0,0-.38-.12.25.25,0,0,0-.16.29h0l0,.12c0,.09.1.17.15.26a2.43,2.43,0,0,0,.14.2,3,3,0,0,0,.87.7,1.46,1.46,0,0,0,.62.2.26.26,0,0,0,.29-.25A.49.49,0,0,0,242.1,174.57Z" style="fill: rgb(255, 168, 167); transform-origin: 241.332px 174.391px;" id="elgezm5isf40q" class="animable"></path><path d="M237.54,183.08c-1.53.57-5.59.3-8.52-.58l-.32-2.57a35.25,35.25,0,0,0,4.54,2.22A14.14,14.14,0,0,0,237.54,183.08Z" style="fill: rgb(242, 143, 143); transform-origin: 233.12px 181.655px;" id="elpbde6un7uno" class="animable"></path><path d="M240.64,143.16a5.94,5.94,0,0,1,.79.32,9.63,9.63,0,0,1,3.43,3.1,12.06,12.06,0,0,1,2,6.64,6.9,6.9,0,0,1-1.09,4.24,7.32,7.32,0,0,1-3.86,2.41,4.28,4.28,0,0,0,0-4.6c0,1.8-.26,4.1-1.43,5.37a6.41,6.41,0,0,1-3.54,2,5.41,5.41,0,0,1-.09,3.51,1.85,1.85,0,0,1-.55.86c-.75.59-1.46-.21-1.82-.83-.24-.42-.42-.87-.65-1.3a4.28,4.28,0,0,0-2.85-2.5,3.65,3.65,0,0,0-3.76,1.35,7.37,7.37,0,0,0-.23,6.09c.77,1.72,1.85,2.81,3.07,3.06a3.29,3.29,0,0,0,2.77-.7s-2.21,6.67-8.14,8c0,0-6.43.71-11.62-2.2-.58-.32-1.28-2.31-1.65-2.92-.7-1.16-1.44-2.31-2.18-3.46a32.59,32.59,0,0,1-2.77-5.92c-1.78-4.48-1.68-9.44-.69-14.23.74-3.58,4-7.12,4-7.12,1.32-1.44,2.16-3,3.84-4.13a16.17,16.17,0,0,1,5.36-2.39,22.81,22.81,0,0,1,12.5.53,22.42,22.42,0,0,1,6.45,3.27,5.41,5.41,0,0,0,2.72,1.47Z" style="fill: rgb(240, 153, 122); transform-origin: 225.976px 158.719px;" id="el3v7fuqud3pv" class="animable"></path><path d="M198.66,195.37c1.74-4.72,3.63-7.74,12.78-6.43l1.28.16c3.23.79,7.79,1.5,16.14,3,1,.29,8,1.56,9.61,1.95,0,0,7.43,3.31,8.86,20.61.38,4.63-1.27,26.9-1.27,26.9s-9.6,7.68-28.73,5.58c-16.35-1.79-21-9-22.3-11.6,0,0,1.05-4.66,1.88-11.32C196.68,214.33,193.57,209.15,198.66,195.37Z" style="fill: rgb(251, 0, 0); transform-origin: 221.208px 218.068px;" id="elmop377dq5pc" class="animable"></path><path d="M210,144.2s-7,.11-8.66,12c-1,6.89-.36,16-2.42,24.55-1,4.33-2.44,8.35-2.32,12.87a27.33,27.33,0,0,0,3.64,13c.6-2.15,1.19-4.3,1.79-6.45a12.69,12.69,0,0,0,1.53,8.77,27.86,27.86,0,0,0,5.83,6.94,34.41,34.41,0,0,1,1.85-6.37,9.76,9.76,0,0,1,.76,4.95,10.91,10.91,0,0,0,4.64-4.26c0,1.15,0,2.3.05,3.45a.94.94,0,0,0,.12.53c.21.28.63.23,1,.14,4-1,14.17-11.72,16.19-21l5.87,1.24s.8-1.86-1.73-6-4.31-5.88-5.21-16.33c-2.15,3.11-8,5.86-11.41,2.26S210,144.2,210,144.2Z" style="fill: rgb(240, 153, 122); transform-origin: 218.292px 180.04px;" id="elmwo6v628hc" class="animable"></path></g></g><g id="freepik--arm--inject-5" class="animable" style="transform-origin: 242.719px 218.481px;"><path d="M262.85,243.43c2.45-.8,4.27-3.63,7.83-10.9,4.44-9.06,6.83-11.08,10.1-20.36,2.75-6.79-.18-17.31-3.11-19.65-6.54,1.92-10.34,4.92-14.09,12.58-3.36,6.88-8.36,17.2-11.42,23.31q-4.41.92-8.85,1.77-3.65.7-7.3,1.34c-2.58.43-5.22,1.06-7.69-.15a12.61,12.61,0,0,1-2.49-1.46c-.89-.74-1.73-1.5-2.69-2.15a23,23,0,0,0-6.07-3,.93.93,0,0,0-.49-.07c-.73.17-.51,1.44-.27,1.89.77,1.47,2.34,2.5,3.47,3.7.21.23.45.55.31.83s-.44.3-.71.31c-1.92,0-3.66-1-5.25-2.12s-3.25-2.21-5.16-2.36c-.77-.07-1.54,0-2.29-.07a19.9,19.9,0,0,0-2.25-.45,1.65,1.65,0,0,0-1.76,1.16c-.12.84.73,1.55.77,2.4,0,.59-.36,1.14-.42,1.73-.11,1.11.86,2,1.46,2.92.41.65.66,1.39,1.09,2a8.61,8.61,0,0,0,2,1.86c1,.79,2.06,1.59,3.16,2.28s2.24,1.25,3.39,1.81c5.71,2.76,12.19,2.8,18.4,2.54,3.37-.15,6.75-.27,10.13-.41,4.16-.18,8.33-.36,12.49-.6a43.23,43.23,0,0,0,7.63-.7Z" style="fill: rgb(255, 168, 167); transform-origin: 242.269px 218.871px;" id="eli5inkgb4jpc" class="animable"></path><path d="M278.11,191.74C273.4,193,266.76,195,263,203.17c-3.13,6.91-11.22,24.56-11.22,24.56L242,230.44a10.18,10.18,0,0,0-1.58,8c.91,4.62,2.94,6.71,2.94,6.71s5.05-.11,13.65-.35,9.23-2.23,11.14-6,13.63-26.22,13.63-26.22S285.67,198.52,278.11,191.74Z" style="fill: rgb(69, 90, 100); transform-origin: 261.481px 218.445px;" id="elehojlzuu4ad" class="animable"></path></g><g id="freepik--arm--inject-5" class="animable" style="transform-origin: 316.162px 210.462px;"><path d="M348.89,181.64c-.94-1.87-3.81-4.09-3.81-4.09-12.09,5.14-11.18,15.3-11.39,25s-1.14,20.66-1.14,20.66a82.67,82.67,0,0,1-14,6.25c-3,.91-5.14,1.39-8.06.41-1-.35-1.93-.85-3-1.14-1.93-.54-3.87-.89-5.8-1.25a47,47,0,0,1-5.53-1.5c-1.1-.34-2,.11-1.73,1.42.4,1.86,2.38,2.85,3.56,4.13,1,1.09-.13,1.63-1.24,1.73a11.1,11.1,0,0,1-4.77-.39,49.45,49.45,0,0,0-5-1.14,7.85,7.85,0,0,0-4.81.24c-.85.38-1.5.9-1.35,1.88.05.33.39.55.6.67a2.13,2.13,0,0,0,.49.18l.37.09c.2.06.56.11.77.2a5.58,5.58,0,0,1,1.83,1.46c.63.62,1.57,1.06,2.27,1.63s.89,1.65,1.54,2.23,1.43.41,2.12.79,1,1.08,1.72,1.44a7,7,0,0,0,3.53.83,72,72,0,0,0,7.82-.57,75.25,75.25,0,0,1,7.82-.94c7.05-.43,20.2-1.92,32.45-6.86,4.69-1.89,4.37-5.39,5.28-11.68,1.15-8,2.28-21.43,2.07-26.75C351.22,189.22,351.4,186.63,348.89,181.64Z" style="fill: rgb(200, 133, 106); transform-origin: 316.162px 210.462px;" id="el93xy3dprayt" class="animable"></path></g><g id="freepik--arm--inject-5" class="animable" style="transform-origin: 378.306px 183.537px;"><path d="M407.29,155.23c-7.34,2.12-8.91,2.68-12.12,15.41-1.78,7-7,29.81-7,29.81L399,211.76s3.65,1.27,6.44-6.11c2.72-7.22,8.72-22.44,8.72-22.44S415.1,159.87,407.29,155.23Z" style="fill: rgb(55, 71, 79); transform-origin: 401.183px 183.537px;" id="elxnuwrjbz5k9" class="animable"></path><path d="M401.57,210.88c-2.81,2.2-12.17.18-16.64-4s-14.22-17.15-17.76-21.18-5.27-2.13-8.47-3.37a48.55,48.55,0,0,1-7-2.92,9.83,9.83,0,0,0-9.28-.55c-.13-2.32,3.9-3.43,7.73-4.33s6-.65,10.37-.89c3.95-.22,7.25.07,11.47,2.92,4.66,3.14,12.66,9,17.23,11.88,4.92,3.13,9.22,6.05,12.12,11.34C403.45,203.66,403.14,209.66,401.57,210.88Z" style="fill: rgb(255, 189, 167); transform-origin: 372.626px 192.681px;" id="eltiae9ybmlf8" class="animable"></path></g><path id="freepik--arm--inject-5" d="M236,192.47c11.57.6,12.93,3.82,20.83,10.65,7.75,6.71,16.86,14.3,16.86,14.3s23.19-3.89,24.93-4.58a13.73,13.73,0,0,0,4.61-3.64,18.51,18.51,0,0,1,3.28-3.28c1-.7,2-1.45,3-2.23s2.08-1.68,2.19.14a5,5,0,0,1-.72,2.84c-.34.54-.83.94-1.2,1.44a11.48,11.48,0,0,0-1,1.67c-1,1.95,1.77,1.66,3,1.59a9.8,9.8,0,0,0,5.4-1.85c1.41-1.07,3.07-2.58,4.83-1.23a.49.49,0,0,0,.27.13.4.4,0,0,0,.22-.1,3.21,3.21,0,0,1,2.84-.39,1.12,1.12,0,0,1,.72.72c.21.85-.81,1.56-.84,2.41a3.72,3.72,0,0,0,.08.66,3.91,3.91,0,0,1-.74,2.54c-.49.76-1.12,1.42-1.65,2.15a4.38,4.38,0,0,0-.55,1,7.13,7.13,0,0,1-2.78,3.69,22.79,22.79,0,0,1-8.91,4.06c-3.36.73-6.74-.35-10.13,0-2.17.25-19,7.21-29.19,9.61-2.12.5-4.91-.79-6.94-1.94-4.1-2.35-16.32-12-24.18-18.1C229.65,203.79,236,192.47,236,192.47Z" style="fill: rgb(255, 196, 195); transform-origin: 280.099px 213.675px;" class="animable"></path><g id="freepik--arm--inject-5" class="animable" style="transform-origin: 202.14px 200.666px;"><path d="M165.26,172.78c8.45,3.19,11.57,6.18,16.65,18.69,2.8,6.92,10.49,24.42,10.49,24.42l-10.19,12.5s-3.62,1.61-7.11-5.71c-3.4-7.15-13.15-23.92-13.15-23.92S156.32,177.71,165.26,172.78Z" style="fill: rgb(240, 240, 240); transform-origin: 176.3px 200.66px;" id="eli7bmsyrzz1" class="animable"></path><path d="M178.86,227.45c3,2.48,13.23.59,18.24-3.82s16-18.19,20-22.46,5.79-2.14,9.32-3.38,4.85-1.47,7.73-2.95c3.7-1.89,5.86-1.69,9.93-1.11-1.91-3.55-3.95-3-8.08-4.14s-6.55-.9-11.25-1.31c-4.28-.37-7.88-.16-12.57,2.79-5.17,3.27-14.07,9.34-19.14,12.36-5.45,3.24-10.23,6.27-13.55,11.93C177.06,219.53,177.2,226.06,178.86,227.45Z" style="fill: rgb(177, 102, 104); transform-origin: 210.858px 208.348px;" id="elxb5txe9ydog" class="animable"></path></g><g id="freepik--arm--inject-5" class="animable" style="transform-origin: 132.068px 187.69px;"><path d="M162.35,170.29c-.57-.26-1-.81-1.53-1.11a2.13,2.13,0,0,0-1.31-.22c-.51.08-1,.35-1.48.4s-1-.09-1.52-.06a3.9,3.9,0,0,0-1.25.36q-2.65,1.07-5.23,2.28a32.81,32.81,0,0,0-3.32,1.87,17,17,0,0,0-3.08,2.52c-3.53,3.64-16.85,16.08-17.23,16.45,0,0-2.41-3.54-8.36-12s-10.93-15.63-18.4-16.9c-8.8,7.17.26,21.92.26,21.92S110,198.7,117,206.38c4.78,5.27,7.15,7,10.76,5.46s8.33-6.58,10.82-10.15c3.17-4.53,8.58-14,11-18.18s4.47-2.9,7.17-4.16,3.3-2.52,5.33-4.27a6.21,6.21,0,0,1,5.26-1.32,11.27,11.27,0,0,1,1.92.72A7,7,0,0,0,167,171.9a6.19,6.19,0,0,0-3.29-1.43,4.37,4.37,0,0,1-1.14-.11Z" style="fill: rgb(255, 168, 167); transform-origin: 132.528px 188.13px;" id="elzj8r0p048o" class="animable"></path><path d="M99.54,163a21,21,0,0,1,8.74,4.76c1.55,1.51,4.74,5.55,4.74,5.55s-5.76,1.84-8.34,6.68a21.26,21.26,0,0,0-2.48,9.39s-1.3-1.31-3.6-4.21S91.05,169.08,99.54,163Z" style="fill: rgb(55, 71, 79); transform-origin: 103.948px 176.19px;" id="el08lzeewcef1c" class="animable"></path></g></g></g><defs>     <filter id="active" height="200%">         <feMorphology in="SourceAlpha" result="DILATED" operator="dilate" radius="2"></feMorphology>                <feFlood flood-color="#32DFEC" flood-opacity="1" result="PINK"></feFlood>        <feComposite in="PINK" in2="DILATED" operator="in" result="OUTLINE"></feComposite>        <feMerge>            <feMergeNode in="OUTLINE"></feMergeNode>            <feMergeNode in="SourceGraphic"></feMergeNode>        </feMerge>    </filter>    <filter id="hover" height="200%">        <feMorphology in="SourceAlpha" result="DILATED" operator="dilate" radius="2"></feMorphology>                <feFlood flood-color="#ff0000" flood-opacity="0.5" result="PINK"></feFlood>        <feComposite in="PINK" in2="DILATED" operator="in" result="OUTLINE"></feComposite>        <feMerge>            <feMergeNode in="OUTLINE"></feMergeNode>            <feMergeNode in="SourceGraphic"></feMergeNode>        </feMerge>            <feColorMatrix type="matrix" values="0   0   0   0   0                0   1   0   0   0                0   0   0   0   0                0   0   0   1   0 "></feColorMatrix>    </filter></defs></svg>